ffmpeg started on 2025-05-28 at 20:19:51
Report written to "D:\Convert\FFMetrics\reports\psnr_report-6.txt"
Log level: 32
Command line:
ffmpeg -hide_banner -nostdin -i "G:\\\xc0\xed\xe8\xec\xe5\\\xce\xed\xe3\xee\xe8\xed\xe3\xe8\\!_36_\xce\xf1\xe5\xed\xfc_2024\\JamClub\\\xc8\xf1\xf2\xee\xf0\xe8\xff \xee \xf2\xee\xec, \xea\xe0\xea \xff \xef\xf0\xe8\xf8\xb8\xeb \xed\xe0 \xe2\xe5\xf7\xe5\xf0\xe8\xed\xea\xf3, \xe0 \xf2\xe0\xec \xed\xe5 \xe1\xfb\xeb\xee \xed\xe8 \xee\xe4\xed\xee\xe9 \xe6\xe5\xed\xf9\xe8\xed\xfb\\JamClub_Goukon_ni_Ittara_Onna_ga_Inakatta_Hanashi_03_1080p_HEVC.mkv" -i "G:\\\xc0\xed\xe8\xec\xe5\\\xce\xed\xe3\xee\xe8\xed\xe3\xe8\\!_36_\xce\xf1\xe5\xed\xfc_2024\\JamClub\\\xc8\xf1\xf2\xee\xf0\xe8\xff \xee \xf2\xee\xec, \xea\xe0\xea \xff \xef\xf0\xe8\xf8\xb8\xeb \xed\xe0 \xe2\xe5\xf7\xe5\xf0\xe8\xed\xea\xf3, \xe0 \xf2\xe0\xec \xed\xe5 \xe1\xfb\xeb\xee \xed\xe8 \xee\xe4\xed\xee\xe9 \xe6\xe5\xed\xf9\xe8\xed\xfb\\JamClub_Goukon_ni_Ittara_Onna_ga_Inakatta_Hanashi_03_1080p.mp4" -lavfi "[0:v]settb=AVTB,setpts=PTS-STARTPTS,format=pix_fmts=yuv420p10,fps=24000/1001,scale=1920:1080:flags=bicubic[main];[1:v]settb=AVTB,setpts=PTS-STARTPTS,format=pix_fmts=yuv420p,fps=24000/1001,scale=1920:1080:flags=bicubic[ref];[main][ref]psnr=eof_action=endall:stats_file='D\\:/Convert/FFMetrics/logs/psnr_logfile-6.txt'" -f null -
Input #0, matroska,webm, from 'G:\Аниме\Онгоинги\!_36_Осень_2024\JamClub\История о том, как я пришёл на вечеринку, а там не было ни одной женщины\JamClub_Goukon_ni_Ittara_Onna_ga_Inakatta_Hanashi_03_1080p_HEVC.mkv':
  Metadata:
    COMPATIBLE_BRANDS: isomiso2avc1mp41
    MAJOR_BRAND     : isom
    MINOR_VERSION   : 512
    ENCODER         : Lavf61.7.100
  Duration: 00:23:56.14, start: -0.001000, bitrate: 736 kb/s
  Stream #0:0: Video: hevc (Main 10), yuv420p10le(tv, bt709, progressive), 1920x1080 [SAR 1:1 DAR 16:9], 23.98 fps, 23.98 tbr, 1k tbn (default)
      Metadata:
        HANDLER_NAME    : VideoHandler
        VENDOR_ID       : [0][0][0][0]
        ENCODER         : Lavc61.19.100 libx265
        BPS             : 539036
        DURATION        : 00:23:56.101708333
        NUMBER_OF_FRAMES: 34432
        NUMBER_OF_BYTES : 96763825
        _STATISTICS_WRITING_APP: mkvpropedit v66.0.0 ('Josie') 64-bit
        _STATISTICS_WRITING_DATE_UTC: 2025-05-28 09:52:36
        _STATISTICS_TAGS: BPS DURATION NUMBER_OF_FRAMES NUMBER_OF_BYTES
  Stream #0:1: Audio: aac (LC), 48000 Hz, stereo, fltp (default)
      Metadata:
        HANDLER_NAME    : SoundHandler
        VENDOR_ID       : [0][0][0][0]
        ENCODER         : Lavc61.19.100 aac
        BPS             : 193891
        DURATION        : 00:23:56.102000000
        NUMBER_OF_FRAMES: 67318
        NUMBER_OF_BYTES : 34805939
        _STATISTICS_WRITING_APP: mkvpropedit v66.0.0 ('Josie') 64-bit
        _STATISTICS_WRITING_DATE_UTC: 2025-05-28 09:52:36
        _STATISTICS_TAGS: BPS DURATION NUMBER_OF_FRAMES NUMBER_OF_BYTES
Input #1, mov,mp4,m4a,3gp,3g2,mj2, from 'G:\Аниме\Онгоинги\!_36_Осень_2024\JamClub\История о том, как я пришёл на вечеринку, а там не было ни одной женщины\JamClub_Goukon_ni_Ittara_Onna_ga_Inakatta_Hanashi_03_1080p.mp4':
  Metadata:
    major_brand     : isom
    minor_version   : 512
    compatible_brands: isomiso2avc1mp41
    encoder         : Lavf60.16.100
  Duration: 00:23:56.12, start: 0.000000, bitrate: 2659 kb/s
  Stream #1:0[0x1](und): Video: h264 (High) (avc1 / 0x31637661), yuv420p(progressive), 1920x1080 [SAR 1:1 DAR 16:9], 2461 kb/s, 23.98 fps, 23.98 tbr, 90k tbn (default)
      Metadata:
        handler_name    : VideoHandler
        vendor_id       : [0][0][0][0]
  Stream #1:1[0x2](und): Audio: aac (LC) (mp4a / 0x6134706D), 48000 Hz, stereo, fltp, 192 kb/s (default)
      Metadata:
        handler_name    : SoundHandler
        vendor_id       : [0][0][0][0]
Stream mapping:
  Stream #0:0 (hevc) -> settb:default
  Stream #1:0 (h264) -> settb:default
  psnr:default -> Stream #0:0 (wrapped_avframe)
  Stream #0:1 -> #0:1 (aac (native) -> pcm_s16le (native))
[swscaler @ 000001c747e838c0] No accelerated colorspace conversion found from yuv420p to bgr48le.
[swscaler @ 000001c747f05c40] No accelerated colorspace conversion found from yuv420p to bgr48le.
[swscaler @ 000001c747fcaf80] No accelerated colorspace conversion found from yuv420p to bgr48le.
[swscaler @ 000001c74822b080] No accelerated colorspace conversion found from yuv420p to bgr48le.
[swscaler @ 000001c748281240] No accelerated colorspace conversion found from yuv420p to bgr48le.
[swscaler @ 000001c748305040] No accelerated colorspace conversion found from yuv420p to bgr48le.
[swscaler @ 000001c74ce32cc0] No accelerated colorspace conversion found from yuv420p to bgr48le.
[swscaler @ 000001c74cf24c80] No accelerated colorspace conversion found from yuv420p to bgr48le.
[swscaler @ 000001c74cfbe8c0] No accelerated colorspace conversion found from yuv420p to bgr48le.
[swscaler @ 000001c74d21d040] No accelerated colorspace conversion found from yuv420p to bgr48le.
[swscaler @ 000001c74d237000] No accelerated colorspace conversion found from yuv420p to bgr48le.
[swscaler @ 000001c74d543140] No accelerated colorspace conversion found from yuv420p to bgr48le.
[swscaler @ 000001c74d59f040] No accelerated colorspace conversion found from yuv420p to bgr48le.
[swscaler @ 000001c74d63aac0] No accelerated colorspace conversion found from yuv420p to bgr48le.
[swscaler @ 000001c74d7e8200] No accelerated colorspace conversion found from yuv420p to bgr48le.
[swscaler @ 000001c74d97f040] No accelerated colorspace conversion found from yuv420p to bgr48le.
Output #0, null, to 'pipe:':
  Metadata:
    COMPATIBLE_BRANDS: isomiso2avc1mp41
    MAJOR_BRAND     : isom
    MINOR_VERSION   : 512
    encoder         : Lavf61.7.100
  Stream #0:0: Video: wrapped_avframe, yuv420p10le(tv, bt709, progressive), 1920x1080 [SAR 1:1 DAR 16:9], q=2-31, 200 kb/s, 23.98 fps, 23.98 tbn
      Metadata:
        encoder         : Lavc61.19.100 wrapped_avframe
  Stream #0:1: Audio: pcm_s16le, 48000 Hz, stereo, s16, 1536 kb/s (default)
      Metadata:
        HANDLER_NAME    : SoundHandler
        VENDOR_ID       : [0][0][0][0]
        _STATISTICS_TAGS: BPS DURATION NUMBER_OF_FRAMES NUMBER_OF_BYTES
        BPS             : 193891
        DURATION        : 00:23:56.102000000
        NUMBER_OF_FRAMES: 67318
        NUMBER_OF_BYTES : 34805939
        _STATISTICS_WRITING_APP: mkvpropedit v66.0.0 ('Josie') 64-bit
        _STATISTICS_WRITING_DATE_UTC: 2025-05-28 09:52:36
        encoder         : Lavc61.19.100 pcm_s16le
frame=   27 fps=0.0 q=-0.0 size=N/A time=00:00:01.12 bitrate=N/A speed=2.16x    frame=   62 fps= 60 q=-0.0 size=N/A time=00:00:02.58 bitrate=N/A speed=2.52x    frame=  103 fps= 66 q=-0.0 size=N/A time=00:00:04.29 bitrate=N/A speed=2.77x    frame=  142 fps= 69 q=-0.0 size=N/A time=00:00:05.92 bitrate=N/A speed=2.88x    frame=  181 fps= 70 q=-0.0 size=N/A time=00:00:07.54 bitrate=N/A speed=2.92x    frame=  219 fps= 71 q=-0.0 size=N/A time=00:00:09.13 bitrate=N/A speed=2.96x    frame=  259 fps= 72 q=-0.0 size=N/A time=00:00:10.80 bitrate=N/A speed=   3x    frame=  299 fps= 72 q=-0.0 size=N/A time=00:00:12.47 bitrate=N/A speed=3.02x    frame=  340 fps= 73 q=-0.0 size=N/A time=00:00:14.18 bitrate=N/A speed=3.05x    frame=  380 fps= 73 q=-0.0 size=N/A time=00:00:15.84 bitrate=N/A speed=3.06x    frame=  415 fps= 73 q=-0.0 size=N/A time=00:00:17.30 bitrate=N/A speed=3.04x    frame=  459 fps= 74 q=-0.0 size=N/A time=00:00:19.14 bitrate=N/A speed=3.08x    frame=  492 fps= 73 q=-0.0 size=N/A time=00:00:20.52 bitrate=N/A speed=3.06x    frame=  538 fps= 74 q=-0.0 size=N/A time=00:00:22.43 bitrate=N/A speed= 3.1x    frame=  577 fps= 75 q=-0.0 size=N/A time=00:00:24.06 bitrate=N/A speed=3.11x    frame=  617 fps= 75 q=-0.0 size=N/A time=00:00:25.73 bitrate=N/A speed=3.11x    frame=  655 fps= 75 q=-0.0 size=N/A time=00:00:27.31 bitrate=N/A speed=3.11x    frame=  692 fps= 74 q=-0.0 size=N/A time=00:00:28.86 bitrate=N/A speed= 3.1x    frame=  729 fps= 74 q=-0.0 size=N/A time=00:00:30.40 bitrate=N/A speed= 3.1x    frame=  765 fps= 74 q=-0.0 size=N/A time=00:00:31.90 bitrate=N/A speed=3.09x    frame=  802 fps= 74 q=-0.0 size=N/A time=00:00:33.45 bitrate=N/A speed=3.08x    frame=  845 fps= 74 q=-0.0 size=N/A time=00:00:35.24 bitrate=N/A speed= 3.1x    frame=  884 fps= 74 q=-0.0 size=N/A time=00:00:36.87 bitrate=N/A speed= 3.1x    frame=  916 fps= 74 q=-0.0 size=N/A time=00:00:38.20 bitrate=N/A speed=3.08x    frame=  962 fps= 74 q=-0.0 size=N/A time=00:00:40.12 bitrate=N/A speed= 3.1x    frame= 1000 fps= 74 q=-0.0 size=N/A time=00:00:41.70 bitrate=N/A speed= 3.1x    frame= 1040 fps= 75 q=-0.0 size=N/A time=00:00:43.37 bitrate=N/A speed=3.11x    frame= 1079 fps= 75 q=-0.0 size=N/A time=00:00:45.00 bitrate=N/A speed=3.11x    frame= 1112 fps= 74 q=-0.0 size=N/A time=00:00:46.37 bitrate=N/A speed=3.09x    frame= 1147 fps= 74 q=-0.0 size=N/A time=00:00:47.83 bitrate=N/A speed=3.09x    frame= 1195 fps= 75 q=-0.0 size=N/A time=00:00:49.84 bitrate=N/A speed=3.11x    frame= 1236 fps= 75 q=-0.0 size=N/A time=00:00:51.55 bitrate=N/A speed=3.12x    frame= 1272 fps= 75 q=-0.0 size=N/A time=00:00:53.05 bitrate=N/A speed=3.11x    frame= 1315 fps= 75 q=-0.0 size=N/A time=00:00:54.84 bitrate=N/A speed=3.12x    frame= 1353 fps= 75 q=-0.0 size=N/A time=00:00:56.43 bitrate=N/A speed=3.12x    frame= 1393 fps= 75 q=-0.0 size=N/A time=00:00:58.09 bitrate=N/A speed=3.12x    frame= 1431 fps= 75 q=-0.0 size=N/A time=00:00:59.68 bitrate=N/A speed=3.12x    frame= 1470 fps= 75 q=-0.0 size=N/A time=00:01:01.31 bitrate=N/A speed=3.12x    frame= 1507 fps= 75 q=-0.0 size=N/A time=00:01:02.85 bitrate=N/A speed=3.12x    frame= 1540 fps= 75 q=-0.0 size=N/A time=00:01:04.23 bitrate=N/A speed=3.11x    frame= 1584 fps= 75 q=-0.0 size=N/A time=00:01:06.06 bitrate=N/A speed=3.12x    frame= 1623 fps= 75 q=-0.0 size=N/A time=00:01:07.69 bitrate=N/A speed=3.12x    frame= 1657 fps= 75 q=-0.0 size=N/A time=00:01:09.11 bitrate=N/A speed=3.11x    frame= 1693 fps= 75 q=-0.0 size=N/A time=00:01:10.61 bitrate=N/A speed=3.11x    frame= 1739 fps= 75 q=-0.0 size=N/A time=00:01:12.53 bitrate=N/A speed=3.12x    frame= 1778 fps= 75 q=-0.0 size=N/A time=00:01:14.15 bitrate=N/A speed=3.12x    frame= 1818 fps= 75 q=-0.0 size=N/A time=00:01:15.82 bitrate=N/A speed=3.12x    frame= 1855 fps= 75 q=-0.0 size=N/A time=00:01:17.36 bitrate=N/A speed=3.12x    frame= 1895 fps= 75 q=-0.0 size=N/A time=00:01:19.03 bitrate=N/A speed=3.12x    frame= 1929 fps= 75 q=-0.0 size=N/A time=00:01:20.45 bitrate=N/A speed=3.12x    frame= 1965 fps= 75 q=-0.0 size=N/A time=00:01:21.95 bitrate=N/A speed=3.11x    frame= 2011 fps= 75 q=-0.0 size=N/A time=00:01:23.87 bitrate=N/A speed=3.13x    frame= 2051 fps= 75 q=-0.0 size=N/A time=00:01:25.54 bitrate=N/A speed=3.13x    frame= 2087 fps= 75 q=-0.0 size=N/A time=00:01:27.04 bitrate=N/A speed=3.12x    frame= 2129 fps= 75 q=-0.0 size=N/A time=00:01:28.79 bitrate=N/A speed=3.13x    frame= 2163 fps= 75 q=-0.0 size=N/A time=00:01:30.21 bitrate=N/A speed=3.12x    frame= 2207 fps= 75 q=-0.0 size=N/A time=00:01:32.05 bitrate=N/A speed=3.13x    frame= 2246 fps= 75 q=-0.0 size=N/A time=00:01:33.67 bitrate=N/A speed=3.13x    frame= 2286 fps= 75 q=-0.0 size=N/A time=00:01:35.34 bitrate=N/A speed=3.13x    frame= 2324 fps= 75 q=-0.0 size=N/A time=00:01:36.93 bitrate=N/A speed=3.13x    frame= 2364 fps= 75 q=-0.0 size=N/A time=00:01:38.59 bitrate=N/A speed=3.13x    frame= 2403 fps= 75 q=-0.0 size=N/A time=00:01:40.22 bitrate=N/A speed=3.13x    frame= 2441 fps= 75 q=-0.0 size=N/A time=00:01:41.81 bitrate=N/A speed=3.13x    frame= 2473 fps= 75 q=-0.0 size=N/A time=00:01:43.14 bitrate=N/A speed=3.12x    frame= 2518 fps= 75 q=-0.0 size=N/A time=00:01:45.02 bitrate=N/A speed=3.13x    frame= 2557 fps= 75 q=-0.0 size=N/A time=00:01:46.64 bitrate=N/A speed=3.13x    frame= 2595 fps= 75 q=-0.0 size=N/A time=00:01:48.23 bitrate=N/A speed=3.13x    frame= 2627 fps= 75 q=-0.0 size=N/A time=00:01:49.56 bitrate=N/A speed=3.12x    frame= 2671 fps= 75 q=-0.0 size=N/A time=00:01:51.40 bitrate=N/A speed=3.13x    frame= 2707 fps= 75 q=-0.0 size=N/A time=00:01:52.90 bitrate=N/A speed=3.12x    frame= 2749 fps= 75 q=-0.0 size=N/A time=00:01:54.65 bitrate=N/A speed=3.13x    frame= 2781 fps= 75 q=-0.0 size=N/A time=00:01:55.99 bitrate=N/A speed=3.12x    frame= 2815 fps= 75 q=-0.0 size=N/A time=00:01:57.40 bitrate=N/A speed=3.12x    frame= 2864 fps= 75 q=-0.0 size=N/A time=00:01:59.45 bitrate=N/A speed=3.13x    frame= 2904 fps= 75 q=-0.0 size=N/A time=00:02:01.12 bitrate=N/A speed=3.13x    frame= 2943 fps= 75 q=-0.0 size=N/A time=00:02:02.74 bitrate=N/A speed=3.13x    frame= 2981 fps= 75 q=-0.0 size=N/A time=00:02:04.33 bitrate=N/A speed=3.13x    frame= 3008 fps= 75 q=-0.0 size=N/A time=00:02:05.45 bitrate=N/A speed=3.12x    frame= 3058 fps= 75 q=-0.0 size=N/A time=00:02:07.54 bitrate=N/A speed=3.13x    frame= 3097 fps= 75 q=-0.0 size=N/A time=00:02:09.17 bitrate=N/A speed=3.13x    frame= 3131 fps= 75 q=-0.0 size=N/A time=00:02:10.58 bitrate=N/A speed=3.12x    frame= 3169 fps= 75 q=-0.0 size=N/A time=00:02:12.17 bitrate=N/A speed=3.12x    frame= 3212 fps= 75 q=-0.0 size=N/A time=00:02:13.96 bitrate=N/A speed=3.13x    frame= 3245 fps= 75 q=-0.0 size=N/A time=00:02:15.34 bitrate=N/A speed=3.12x    frame= 3289 fps= 75 q=-0.0 size=N/A time=00:02:17.17 bitrate=N/A speed=3.13x    frame= 3316 fps= 75 q=-0.0 size=N/A time=00:02:18.30 bitrate=N/A speed=3.12x    frame= 3368 fps= 75 q=-0.0 size=N/A time=00:02:20.47 bitrate=N/A speed=3.13x    frame= 3406 fps= 75 q=-0.0 size=N/A time=00:02:22.05 bitrate=N/A speed=3.13x    frame= 3432 fps= 75 q=-0.0 size=N/A time=00:02:23.14 bitrate=N/A speed=3.12x    frame= 3476 fps= 75 q=-0.0 size=N/A time=00:02:24.97 bitrate=N/A speed=3.12x    frame= 3523 fps= 75 q=-0.0 size=N/A time=00:02:26.93 bitrate=N/A speed=3.13x    frame= 3558 fps= 75 q=-0.0 size=N/A time=00:02:28.39 bitrate=N/A speed=3.13x    frame= 3602 fps= 75 q=-0.0 size=N/A time=00:02:30.23 bitrate=N/A speed=3.13x    frame= 3631 fps= 75 q=-0.0 size=N/A time=00:02:31.44 bitrate=N/A speed=3.12x    frame= 3674 fps= 75 q=-0.0 size=N/A time=00:02:33.23 bitrate=N/A speed=3.12x    frame= 3718 fps= 75 q=-0.0 size=N/A time=00:02:35.07 bitrate=N/A speed=3.13x    frame= 3759 fps= 75 q=-0.0 size=N/A time=00:02:36.78 bitrate=N/A speed=3.13x    frame= 3797 fps= 75 q=-0.0 size=N/A time=00:02:38.36 bitrate=N/A speed=3.13x    frame= 3836 fps= 75 q=-0.0 size=N/A time=00:02:39.99 bitrate=N/A speed=3.13x    frame= 3874 fps= 75 q=-0.0 size=N/A time=00:02:41.57 bitrate=N/A speed=3.13x    frame= 3912 fps= 75 q=-0.0 size=N/A time=00:02:43.16 bitrate=N/A speed=3.13x    frame= 3953 fps= 75 q=-0.0 size=N/A time=00:02:44.87 bitrate=N/A speed=3.13x    frame= 3990 fps= 75 q=-0.0 size=N/A time=00:02:46.41 bitrate=N/A speed=3.13x    frame= 4029 fps= 75 q=-0.0 size=N/A time=00:02:48.04 bitrate=N/A speed=3.13x    frame= 4067 fps= 75 q=-0.0 size=N/A time=00:02:49.62 bitrate=N/A speed=3.13x    frame= 4103 fps= 75 q=-0.0 size=N/A time=00:02:51.12 bitrate=N/A speed=3.13x    frame= 4146 fps= 75 q=-0.0 size=N/A time=00:02:52.92 bitrate=N/A speed=3.13x    frame= 4180 fps= 75 q=-0.0 size=N/A time=00:02:54.34 bitrate=N/A speed=3.13x    frame= 4223 fps= 75 q=-0.0 size=N/A time=00:02:56.13 bitrate=N/A speed=3.13x    frame= 4263 fps= 75 q=-0.0 size=N/A time=00:02:57.80 bitrate=N/A speed=3.13x    frame= 4295 fps= 75 q=-0.0 size=N/A time=00:02:59.13 bitrate=N/A speed=3.13x    frame= 4335 fps= 75 q=-0.0 size=N/A time=00:03:00.80 bitrate=N/A speed=3.13x    frame= 4372 fps= 75 q=-0.0 size=N/A time=00:03:02.34 bitrate=N/A speed=3.13x    frame= 4419 fps= 75 q=-0.0 size=N/A time=00:03:04.30 bitrate=N/A speed=3.13x    frame= 4454 fps= 75 q=-0.0 size=N/A time=00:03:05.76 bitrate=N/A speed=3.13x    frame= 4496 fps= 75 q=-0.0 size=N/A time=00:03:07.52 bitrate=N/A speed=3.13x    frame= 4530 fps= 75 q=-0.0 size=N/A time=00:03:08.93 bitrate=N/A speed=3.13x    frame= 4573 fps= 75 q=-0.0 size=N/A time=00:03:10.73 bitrate=N/A speed=3.13x    frame= 4614 fps= 75 q=-0.0 size=N/A time=00:03:12.44 bitrate=N/A speed=3.13x    frame= 4654 fps= 75 q=-0.0 size=N/A time=00:03:14.11 bitrate=N/A speed=3.13x    frame= 4693 fps= 75 q=-0.0 size=N/A time=00:03:15.73 bitrate=N/A speed=3.13x    frame= 4726 fps= 75 q=-0.0 size=N/A time=00:03:17.11 bitrate=N/A speed=3.13x    frame= 4770 fps= 75 q=-0.0 size=N/A time=00:03:18.94 bitrate=N/A speed=3.13x    frame= 4807 fps= 75 q=-0.0 size=N/A time=00:03:20.49 bitrate=N/A speed=3.13x    frame= 4847 fps= 75 q=-0.0 size=N/A time=00:03:22.16 bitrate=N/A speed=3.13x    frame= 4886 fps= 75 q=-0.0 size=N/A time=00:03:23.78 bitrate=N/A speed=3.13x    frame= 4921 fps= 75 q=-0.0 size=N/A time=00:03:25.24 bitrate=N/A speed=3.13x    frame= 4960 fps= 75 q=-0.0 size=N/A time=00:03:26.87 bitrate=N/A speed=3.13x    frame= 5002 fps= 75 q=-0.0 size=N/A time=00:03:28.62 bitrate=N/A speed=3.13x    frame= 5042 fps= 75 q=-0.0 size=N/A time=00:03:30.29 bitrate=N/A speed=3.13x    frame= 5079 fps= 75 q=-0.0 size=N/A time=00:03:31.83 bitrate=N/A speed=3.13x    frame= 5117 fps= 75 q=-0.0 size=N/A time=00:03:33.42 bitrate=N/A speed=3.13x    frame= 5152 fps= 75 q=-0.0 size=N/A time=00:03:34.88 bitrate=N/A speed=3.13x    frame= 5195 fps= 75 q=-0.0 size=N/A time=00:03:36.67 bitrate=N/A speed=3.13x    frame= 5230 fps= 75 q=-0.0 size=N/A time=00:03:38.13 bitrate=N/A speed=3.13x    frame= 5272 fps= 75 q=-0.0 size=N/A time=00:03:39.88 bitrate=N/A speed=3.13x    frame= 5308 fps= 75 q=-0.0 size=N/A time=00:03:41.38 bitrate=N/A speed=3.13x    frame= 5353 fps= 75 q=-0.0 size=N/A time=00:03:43.26 bitrate=N/A speed=3.13x    frame= 5392 fps= 75 q=-0.0 size=N/A time=00:03:44.89 bitrate=N/A speed=3.13x    frame= 5426 fps= 75 q=-0.0 size=N/A time=00:03:46.30 bitrate=N/A speed=3.13x    frame= 5462 fps= 75 q=-0.0 size=N/A time=00:03:47.81 bitrate=N/A speed=3.13x    frame= 5509 fps= 75 q=-0.0 size=N/A time=00:03:49.77 bitrate=N/A speed=3.13x    frame= 5549 fps= 75 q=-0.0 size=N/A time=00:03:51.43 bitrate=N/A speed=3.14x    frame= 5577 fps= 75 q=-0.0 size=N/A time=00:03:52.60 bitrate=N/A speed=3.13x    frame= 5621 fps= 75 q=-0.0 size=N/A time=00:03:54.44 bitrate=N/A speed=3.13x    frame= 5658 fps= 75 q=-0.0 size=N/A time=00:03:55.98 bitrate=N/A speed=3.13x    frame= 5693 fps= 75 q=-0.0 size=N/A time=00:03:57.44 bitrate=N/A speed=3.13x    frame= 5744 fps= 75 q=-0.0 size=N/A time=00:03:59.57 bitrate=N/A speed=3.14x    frame= 5773 fps= 75 q=-0.0 size=N/A time=00:04:00.78 bitrate=N/A speed=3.13x    frame= 5818 fps= 75 q=-0.0 size=N/A time=00:04:02.65 bitrate=N/A speed=3.13x    frame= 5855 fps= 75 q=-0.0 size=N/A time=00:04:04.20 bitrate=N/A speed=3.13x    frame= 5900 fps= 75 q=-0.0 size=N/A time=00:04:06.07 bitrate=N/A speed=3.14x    frame= 5940 fps= 75 q=-0.0 size=N/A time=00:04:07.74 bitrate=N/A speed=3.14x    frame= 5976 fps= 75 q=-0.0 size=N/A time=00:04:09.24 bitrate=N/A speed=3.14x    frame= 6006 fps= 75 q=-0.0 size=N/A time=00:04:10.50 bitrate=N/A speed=3.13x    frame= 6056 fps= 75 q=-0.0 size=N/A time=00:04:12.58 bitrate=N/A speed=3.14x    frame= 6096 fps= 75 q=-0.0 size=N/A time=00:04:14.25 bitrate=N/A speed=3.14x    frame= 6135 fps= 75 q=-0.0 size=N/A time=00:04:15.88 bitrate=N/A speed=3.14x    frame= 6173 fps= 75 q=-0.0 size=N/A time=00:04:17.46 bitrate=N/A speed=3.14x    frame= 6212 fps= 75 q=-0.0 size=N/A time=00:04:19.09 bitrate=N/A speed=3.14x    frame= 6238 fps= 75 q=-0.0 size=N/A time=00:04:20.17 bitrate=N/A speed=3.13x    frame= 6289 fps= 75 q=-0.0 size=N/A time=00:04:22.30 bitrate=N/A speed=3.14x    frame= 6328 fps= 75 q=-0.0 size=N/A time=00:04:23.93 bitrate=N/A speed=3.14x    frame= 6356 fps= 75 q=-0.0 size=N/A time=00:04:25.09 bitrate=N/A speed=3.13x    frame= 6406 fps= 75 q=-0.0 size=N/A time=00:04:27.18 bitrate=N/A speed=3.14x    frame= 6446 fps= 75 q=-0.0 size=N/A time=00:04:28.85 bitrate=N/A speed=3.14x    frame= 6483 fps= 75 q=-0.0 size=N/A time=00:04:30.39 bitrate=N/A speed=3.14x    frame= 6522 fps= 75 q=-0.0 size=N/A time=00:04:32.02 bitrate=N/A speed=3.14x    frame= 6561 fps= 75 q=-0.0 size=N/A time=00:04:33.64 bitrate=N/A speed=3.14x    frame= 6599 fps= 75 q=-0.0 size=N/A time=00:04:35.23 bitrate=N/A speed=3.14x    frame= 6638 fps= 75 q=-0.0 size=N/A time=00:04:36.85 bitrate=N/A speed=3.14x    frame= 6676 fps= 75 q=-0.0 size=N/A time=00:04:38.44 bitrate=N/A speed=3.14x    frame= 6715 fps= 75 q=-0.0 size=N/A time=00:04:40.07 bitrate=N/A speed=3.14x    frame= 6753 fps= 75 q=-0.0 size=N/A time=00:04:41.65 bitrate=N/A speed=3.14x    frame= 6787 fps= 75 q=-0.0 size=N/A time=00:04:43.07 bitrate=N/A speed=3.13x    frame= 6833 fps= 75 q=-0.0 size=N/A time=00:04:44.99 bitrate=N/A speed=3.14x    frame= 6872 fps= 75 q=-0.0 size=N/A time=00:04:46.61 bitrate=N/A speed=3.14x    frame= 6910 fps= 75 q=-0.0 size=N/A time=00:04:48.20 bitrate=N/A speed=3.14x    frame= 6950 fps= 75 q=-0.0 size=N/A time=00:04:49.87 bitrate=N/A speed=3.14x    frame= 6988 fps= 75 q=-0.0 size=N/A time=00:04:51.45 bitrate=N/A speed=3.14x    frame= 7029 fps= 75 q=-0.0 size=N/A time=00:04:53.16 bitrate=N/A speed=3.14x    frame= 7068 fps= 75 q=-0.0 size=N/A time=00:04:54.79 bitrate=N/A speed=3.14x    frame= 7106 fps= 75 q=-0.0 size=N/A time=00:04:56.37 bitrate=N/A speed=3.14x    frame= 7146 fps= 75 q=-0.0 size=N/A time=00:04:58.04 bitrate=N/A speed=3.14x    frame= 7185 fps= 75 q=-0.0 size=N/A time=00:04:59.67 bitrate=N/A speed=3.14x    frame= 7221 fps= 75 q=-0.0 size=N/A time=00:05:01.17 bitrate=N/A speed=3.14x    frame= 7247 fps= 75 q=-0.0 size=N/A time=00:05:02.26 bitrate=N/A speed=3.13x    frame= 7301 fps= 75 q=-0.0 size=N/A time=00:05:04.51 bitrate=N/A speed=3.14x    frame= 7333 fps= 75 q=-0.0 size=N/A time=00:05:05.84 bitrate=N/A speed=3.14x    frame= 7370 fps= 75 q=-0.0 size=N/A time=00:05:07.39 bitrate=N/A speed=3.14x    frame= 7406 fps= 75 q=-0.0 size=N/A time=00:05:08.89 bitrate=N/A speed=3.13x    frame= 7455 fps= 75 q=-0.0 size=N/A time=00:05:10.93 bitrate=N/A speed=3.14x    frame= 7497 fps= 75 q=-0.0 size=N/A time=00:05:12.68 bitrate=N/A speed=3.14x    frame= 7535 fps= 75 q=-0.0 size=N/A time=00:05:14.27 bitrate=N/A speed=3.14x    frame= 7575 fps= 75 q=-0.0 size=N/A time=00:05:15.94 bitrate=N/A speed=3.14x    frame= 7614 fps= 75 q=-0.0 size=N/A time=00:05:17.56 bitrate=N/A speed=3.14x    frame= 7650 fps= 75 q=-0.0 size=N/A time=00:05:19.06 bitrate=N/A speed=3.14x    frame= 7691 fps= 75 q=-0.0 size=N/A time=00:05:20.77 bitrate=N/A speed=3.14x    frame= 7729 fps= 75 q=-0.0 size=N/A time=00:05:22.36 bitrate=N/A speed=3.14x    frame= 7770 fps= 75 q=-0.0 size=N/A time=00:05:24.07 bitrate=N/A speed=3.14x    frame= 7807 fps= 75 q=-0.0 size=N/A time=00:05:25.61 bitrate=N/A speed=3.14x    frame= 7844 fps= 75 q=-0.0 size=N/A time=00:05:27.16 bitrate=N/A speed=3.14x    frame= 7885 fps= 75 q=-0.0 size=N/A time=00:05:28.87 bitrate=N/A speed=3.14x    frame= 7925 fps= 75 q=-0.0 size=N/A time=00:05:30.53 bitrate=N/A speed=3.14x    frame= 7964 fps= 75 q=-0.0 size=N/A time=00:05:32.16 bitrate=N/A speed=3.14x    frame= 8004 fps= 75 q=-0.0 size=N/A time=00:05:33.83 bitrate=N/A speed=3.14x    frame= 8038 fps= 75 q=-0.0 size=N/A time=00:05:35.25 bitrate=N/A speed=3.14x    frame= 8074 fps= 75 q=-0.0 size=N/A time=00:05:36.75 bitrate=N/A speed=3.14x    frame= 8107 fps= 75 q=-0.0 size=N/A time=00:05:38.12 bitrate=N/A speed=3.13x    frame= 8157 fps= 75 q=-0.0 size=N/A time=00:05:40.21 bitrate=N/A speed=3.14x    frame= 8191 fps= 75 q=-0.0 size=N/A time=00:05:41.63 bitrate=N/A speed=3.14x    frame= 8235 fps= 75 q=-0.0 size=N/A time=00:05:43.46 bitrate=N/A speed=3.14x    frame= 8271 fps= 75 q=-0.0 size=N/A time=00:05:44.96 bitrate=N/A speed=3.14x    frame= 8313 fps= 75 q=-0.0 size=N/A time=00:05:46.72 bitrate=N/A speed=3.14x    frame= 8352 fps= 75 q=-0.0 size=N/A time=00:05:48.34 bitrate=N/A speed=3.14x    frame= 8390 fps= 75 q=-0.0 size=N/A time=00:05:49.93 bitrate=N/A speed=3.14x    frame= 8422 fps= 75 q=-0.0 size=N/A time=00:05:51.26 bitrate=N/A speed=3.14x    frame= 8463 fps= 75 q=-0.0 size=N/A time=00:05:52.97 bitrate=N/A speed=3.14x    frame= 8508 fps= 75 q=-0.0 size=N/A time=00:05:54.85 bitrate=N/A speed=3.14x    frame= 8534 fps= 75 q=-0.0 size=N/A time=00:05:55.93 bitrate=N/A speed=3.14x    frame= 8585 fps= 75 q=-0.0 size=N/A time=00:05:58.06 bitrate=N/A speed=3.14x    frame= 8621 fps= 75 q=-0.0 size=N/A time=00:05:59.56 bitrate=N/A speed=3.14x    frame= 8663 fps= 75 q=-0.0 size=N/A time=00:06:01.31 bitrate=N/A speed=3.14x    frame= 8704 fps= 75 q=-0.0 size=N/A time=00:06:03.02 bitrate=N/A speed=3.14x    frame= 8744 fps= 75 q=-0.0 size=N/A time=00:06:04.69 bitrate=N/A speed=3.14x    frame= 8783 fps= 75 q=-0.0 size=N/A time=00:06:06.32 bitrate=N/A speed=3.14x    frame= 8820 fps= 75 q=-0.0 size=N/A time=00:06:07.86 bitrate=N/A speed=3.14x    frame= 8849 fps= 75 q=-0.0 size=N/A time=00:06:09.07 bitrate=N/A speed=3.14x    frame= 8892 fps= 75 q=-0.0 size=N/A time=00:06:10.87 bitrate=N/A speed=3.14x    frame= 8936 fps= 75 q=-0.0 size=N/A time=00:06:12.70 bitrate=N/A speed=3.14x    frame= 8971 fps= 75 q=-0.0 size=N/A time=00:06:14.16 bitrate=N/A speed=3.14x    frame= 9017 fps= 75 q=-0.0 size=N/A time=00:06:16.08 bitrate=N/A speed=3.14x    frame= 9044 fps= 75 q=-0.0 size=N/A time=00:06:17.21 bitrate=N/A speed=3.14x    frame= 9089 fps= 75 q=-0.0 size=N/A time=00:06:19.08 bitrate=N/A speed=3.14x    frame= 9120 fps= 75 q=-0.0 size=N/A time=00:06:20.38 bitrate=N/A speed=3.14x    frame= 9172 fps= 75 q=-0.0 size=N/A time=00:06:22.54 bitrate=N/A speed=3.14x    frame= 9210 fps= 75 q=-0.0 size=N/A time=00:06:24.13 bitrate=N/A speed=3.14x    frame= 9250 fps= 75 q=-0.0 size=N/A time=00:06:25.80 bitrate=N/A speed=3.14x    frame= 9287 fps= 75 q=-0.0 size=N/A time=00:06:27.34 bitrate=N/A speed=3.14x    frame= 9325 fps= 75 q=-0.0 size=N/A time=00:06:28.93 bitrate=N/A speed=3.14x    frame= 9364 fps= 75 q=-0.0 size=N/A time=00:06:30.55 bitrate=N/A speed=3.14x    frame= 9398 fps= 75 q=-0.0 size=N/A time=00:06:31.97 bitrate=N/A speed=3.14x    frame= 9442 fps= 75 q=-0.0 size=N/A time=00:06:33.81 bitrate=N/A speed=3.14x    frame= 9481 fps= 75 q=-0.0 size=N/A time=00:06:35.43 bitrate=N/A speed=3.14x    frame= 9520 fps= 75 q=-0.0 size=N/A time=00:06:37.06 bitrate=N/A speed=3.14x    frame= 9559 fps= 75 q=-0.0 size=N/A time=00:06:38.68 bitrate=N/A speed=3.14x    frame= 9597 fps= 75 q=-0.0 size=N/A time=00:06:40.27 bitrate=N/A speed=3.14x    frame= 9637 fps= 75 q=-0.0 size=N/A time=00:06:41.94 bitrate=N/A speed=3.14x    frame= 9676 fps= 75 q=-0.0 size=N/A time=00:06:43.56 bitrate=N/A speed=3.14x    frame= 9714 fps= 75 q=-0.0 size=N/A time=00:06:45.15 bitrate=N/A speed=3.14x    frame= 9751 fps= 75 q=-0.0 size=N/A time=00:06:46.69 bitrate=N/A speed=3.14x    frame= 9790 fps= 75 q=-0.0 size=N/A time=00:06:48.32 bitrate=N/A speed=3.14x    frame= 9829 fps= 75 q=-0.0 size=N/A time=00:06:49.95 bitrate=N/A speed=3.14x    frame= 9867 fps= 75 q=-0.0 size=N/A time=00:06:51.53 bitrate=N/A speed=3.14x    frame= 9906 fps= 75 q=-0.0 size=N/A time=00:06:53.16 bitrate=N/A speed=3.14x    frame= 9945 fps= 75 q=-0.0 size=N/A time=00:06:54.78 bitrate=N/A speed=3.14x    frame= 9985 fps= 75 q=-0.0 size=N/A time=00:06:56.45 bitrate=N/A speed=3.14x    frame=10008 fps= 75 q=-0.0 size=N/A time=00:06:57.41 bitrate=N/A speed=3.13x    frame=10064 fps= 75 q=-0.0 size=N/A time=00:06:59.75 bitrate=N/A speed=3.14x    frame=10100 fps= 75 q=-0.0 size=N/A time=00:07:01.25 bitrate=N/A speed=3.14x    frame=10142 fps= 75 q=-0.0 size=N/A time=00:07:03.00 bitrate=N/A speed=3.14x    frame=10180 fps= 75 q=-0.0 size=N/A time=00:07:04.59 bitrate=N/A speed=3.14x    frame=10218 fps= 75 q=-0.0 size=N/A time=00:07:06.17 bitrate=N/A speed=3.14x    frame=10255 fps= 75 q=-0.0 size=N/A time=00:07:07.71 bitrate=N/A speed=3.14x    frame=10294 fps= 75 q=-0.0 size=N/A time=00:07:09.34 bitrate=N/A speed=3.14x    frame=10333 fps= 75 q=-0.0 size=N/A time=00:07:10.97 bitrate=N/A speed=3.14x    frame=10371 fps= 75 q=-0.0 size=N/A time=00:07:12.55 bitrate=N/A speed=3.14x    frame=10411 fps= 75 q=-0.0 size=N/A time=00:07:14.22 bitrate=N/A speed=3.14x    frame=10440 fps= 75 q=-0.0 size=N/A time=00:07:15.43 bitrate=N/A speed=3.14x    frame=10490 fps= 75 q=-0.0 size=N/A time=00:07:17.52 bitrate=N/A speed=3.14x    frame=10527 fps= 75 q=-0.0 size=N/A time=00:07:19.06 bitrate=N/A speed=3.14x    frame=10565 fps= 75 q=-0.0 size=N/A time=00:07:20.64 bitrate=N/A speed=3.14x    frame=10604 fps= 75 q=-0.0 size=N/A time=00:07:22.27 bitrate=N/A speed=3.14x    frame=10635 fps= 75 q=-0.0 size=N/A time=00:07:23.56 bitrate=N/A speed=3.14x    frame=10681 fps= 75 q=-0.0 size=N/A time=00:07:25.48 bitrate=N/A speed=3.14x    frame=10711 fps= 75 q=-0.0 size=N/A time=00:07:26.73 bitrate=N/A speed=3.14x    frame=10760 fps= 75 q=-0.0 size=N/A time=00:07:28.78 bitrate=N/A speed=3.14x    frame=10797 fps= 75 q=-0.0 size=N/A time=00:07:30.32 bitrate=N/A speed=3.14x    frame=10837 fps= 75 q=-0.0 size=N/A time=00:07:31.99 bitrate=N/A speed=3.14x    frame=10862 fps= 75 q=-0.0 size=N/A time=00:07:33.03 bitrate=N/A speed=3.14x    frame=10915 fps= 75 q=-0.0 size=N/A time=00:07:35.24 bitrate=N/A speed=3.14x    frame=10955 fps= 75 q=-0.0 size=N/A time=00:07:36.91 bitrate=N/A speed=3.14x    frame=10992 fps= 75 q=-0.0 size=N/A time=00:07:38.45 bitrate=N/A speed=3.14x    frame=11032 fps= 75 q=-0.0 size=N/A time=00:07:40.12 bitrate=N/A speed=3.14x    frame=11070 fps= 75 q=-0.0 size=N/A time=00:07:41.71 bitrate=N/A speed=3.14x    frame=11110 fps= 75 q=-0.0 size=N/A time=00:07:43.37 bitrate=N/A speed=3.14x    frame=11146 fps= 75 q=-0.0 size=N/A time=00:07:44.88 bitrate=N/A speed=3.14x    frame=11187 fps= 75 q=-0.0 size=N/A time=00:07:46.59 bitrate=N/A speed=3.14x    frame=11226 fps= 75 q=-0.0 size=N/A time=00:07:48.21 bitrate=N/A speed=3.14x    frame=11264 fps= 75 q=-0.0 size=N/A time=00:07:49.80 bitrate=N/A speed=3.14x    frame=11296 fps= 75 q=-0.0 size=N/A time=00:07:51.13 bitrate=N/A speed=3.14x    frame=11343 fps= 75 q=-0.0 size=N/A time=00:07:53.09 bitrate=N/A speed=3.14x    frame=11380 fps= 75 q=-0.0 size=N/A time=00:07:54.64 bitrate=N/A speed=3.14x    frame=11413 fps= 75 q=-0.0 size=N/A time=00:07:56.01 bitrate=N/A speed=3.14x    frame=11460 fps= 75 q=-0.0 size=N/A time=00:07:57.97 bitrate=N/A speed=3.14x    frame=11500 fps= 75 q=-0.0 size=N/A time=00:07:59.64 bitrate=N/A speed=3.14x    frame=11535 fps= 75 q=-0.0 size=N/A time=00:08:01.10 bitrate=N/A speed=3.14x    frame=11575 fps= 75 q=-0.0 size=N/A time=00:08:02.77 bitrate=N/A speed=3.14x    frame=11611 fps= 75 q=-0.0 size=N/A time=00:08:04.27 bitrate=N/A speed=3.14x    frame=11647 fps= 75 q=-0.0 size=N/A time=00:08:05.77 bitrate=N/A speed=3.14x    frame=11685 fps= 75 q=-0.0 size=N/A time=00:08:07.36 bitrate=N/A speed=3.14x    frame=11732 fps= 75 q=-0.0 size=N/A time=00:08:09.32 bitrate=N/A speed=3.14x    frame=11766 fps= 75 q=-0.0 size=N/A time=00:08:10.74 bitrate=N/A speed=3.14x    frame=11812 fps= 75 q=-0.0 size=N/A time=00:08:12.65 bitrate=N/A speed=3.14x    frame=11849 fps= 75 q=-0.0 size=N/A time=00:08:14.20 bitrate=N/A speed=3.14x    frame=11890 fps= 75 q=-0.0 size=N/A time=00:08:15.91 bitrate=N/A speed=3.14x    frame=11922 fps= 75 q=-0.0 size=N/A time=00:08:17.24 bitrate=N/A speed=3.14x    frame=11968 fps= 75 q=-0.0 size=N/A time=00:08:19.16 bitrate=N/A speed=3.14x    frame=12008 fps= 75 q=-0.0 size=N/A time=00:08:20.83 bitrate=N/A speed=3.14x    frame=12046 fps= 75 q=-0.0 size=N/A time=00:08:22.41 bitrate=N/A speed=3.14x    frame=12086 fps= 75 q=-0.0 size=N/A time=00:08:24.08 bitrate=N/A speed=3.14x    frame=12125 fps= 75 q=-0.0 size=N/A time=00:08:25.71 bitrate=N/A speed=3.14x    frame=12161 fps= 75 q=-0.0 size=N/A time=00:08:27.21 bitrate=N/A speed=3.14x    frame=12203 fps= 75 q=-0.0 size=N/A time=00:08:28.96 bitrate=N/A speed=3.14x    frame=12238 fps= 75 q=-0.0 size=N/A time=00:08:30.42 bitrate=N/A speed=3.14x    frame=12279 fps= 75 q=-0.0 size=N/A time=00:08:32.13 bitrate=N/A speed=3.14x    frame=12317 fps= 75 q=-0.0 size=N/A time=00:08:33.72 bitrate=N/A speed=3.14x    frame=12356 fps= 75 q=-0.0 size=N/A time=00:08:35.34 bitrate=N/A speed=3.14x    frame=12392 fps= 75 q=-0.0 size=N/A time=00:08:36.84 bitrate=N/A speed=3.14x    frame=12433 fps= 75 q=-0.0 size=N/A time=00:08:38.55 bitrate=N/A speed=3.14x    frame=12471 fps= 75 q=-0.0 size=N/A time=00:08:40.14 bitrate=N/A speed=3.14x    frame=12506 fps= 75 q=-0.0 size=N/A time=00:08:41.60 bitrate=N/A speed=3.14x    frame=12551 fps= 75 q=-0.0 size=N/A time=00:08:43.48 bitrate=N/A speed=3.14x    frame=12587 fps= 75 q=-0.0 size=N/A time=00:08:44.98 bitrate=N/A speed=3.14x    frame=12625 fps= 75 q=-0.0 size=N/A time=00:08:46.56 bitrate=N/A speed=3.14x    frame=12662 fps= 75 q=-0.0 size=N/A time=00:08:48.11 bitrate=N/A speed=3.14x    frame=12704 fps= 75 q=-0.0 size=N/A time=00:08:49.86 bitrate=N/A speed=3.14x    frame=12743 fps= 75 q=-0.0 size=N/A time=00:08:51.48 bitrate=N/A speed=3.14x    frame=12783 fps= 75 q=-0.0 size=N/A time=00:08:53.15 bitrate=N/A speed=3.14x    frame=12810 fps= 75 q=-0.0 size=N/A time=00:08:54.28 bitrate=N/A speed=3.14x    frame=12857 fps= 75 q=-0.0 size=N/A time=00:08:56.24 bitrate=N/A speed=3.14x    frame=12891 fps= 75 q=-0.0 size=N/A time=00:08:57.66 bitrate=N/A speed=3.14x    frame=12938 fps= 75 q=-0.0 size=N/A time=00:08:59.62 bitrate=N/A speed=3.14x    frame=12975 fps= 75 q=-0.0 size=N/A time=00:09:01.16 bitrate=N/A speed=3.14x    frame=13015 fps= 75 q=-0.0 size=N/A time=00:09:02.83 bitrate=N/A speed=3.14x    frame=13043 fps= 75 q=-0.0 size=N/A time=00:09:04.00 bitrate=N/A speed=3.14x    frame=13092 fps= 75 q=-0.0 size=N/A time=00:09:06.04 bitrate=N/A speed=3.14x    frame=13126 fps= 75 q=-0.0 size=N/A time=00:09:07.46 bitrate=N/A speed=3.14x    frame=13166 fps= 75 q=-0.0 size=N/A time=00:09:09.13 bitrate=N/A speed=3.14x    frame=13208 fps= 75 q=-0.0 size=N/A time=00:09:10.88 bitrate=N/A speed=3.14x    frame=13247 fps= 75 q=-0.0 size=N/A time=00:09:12.51 bitrate=N/A speed=3.14x    frame=13287 fps= 75 q=-0.0 size=N/A time=00:09:14.17 bitrate=N/A speed=3.14x    frame=13319 fps= 75 q=-0.0 size=N/A time=00:09:15.51 bitrate=N/A speed=3.14x    frame=13361 fps= 75 q=-0.0 size=N/A time=00:09:17.26 bitrate=N/A speed=3.14x    frame=13403 fps= 75 q=-0.0 size=N/A time=00:09:19.01 bitrate=N/A speed=3.14x    frame=13438 fps= 75 q=-0.0 size=N/A time=00:09:20.47 bitrate=N/A speed=3.14x    frame=13473 fps= 75 q=-0.0 size=N/A time=00:09:21.93 bitrate=N/A speed=3.14x    frame=13520 fps= 75 q=-0.0 size=N/A time=00:09:23.89 bitrate=N/A speed=3.14x    frame=13559 fps= 75 q=-0.0 size=N/A time=00:09:25.52 bitrate=N/A speed=3.14x    frame=13596 fps= 75 q=-0.0 size=N/A time=00:09:27.06 bitrate=N/A speed=3.14x    frame=13623 fps= 75 q=-0.0 size=N/A time=00:09:28.19 bitrate=N/A speed=3.14x    frame=13675 fps= 75 q=-0.0 size=N/A time=00:09:30.36 bitrate=N/A speed=3.14x    frame=13714 fps= 75 q=-0.0 size=N/A time=00:09:31.98 bitrate=N/A speed=3.14x    frame=13755 fps= 75 q=-0.0 size=N/A time=00:09:33.69 bitrate=N/A speed=3.14x    frame=13793 fps= 75 q=-0.0 size=N/A time=00:09:35.28 bitrate=N/A speed=3.14x    frame=13832 fps= 75 q=-0.0 size=N/A time=00:09:36.90 bitrate=N/A speed=3.14x    frame=13870 fps= 75 q=-0.0 size=N/A time=00:09:38.49 bitrate=N/A speed=3.14x    frame=13909 fps= 75 q=-0.0 size=N/A time=00:09:40.12 bitrate=N/A speed=3.14x    frame=13942 fps= 75 q=-0.0 size=N/A time=00:09:41.49 bitrate=N/A speed=3.14x    frame=13987 fps= 75 q=-0.0 size=N/A time=00:09:43.37 bitrate=N/A speed=3.14x    frame=14017 fps= 75 q=-0.0 size=N/A time=00:09:44.62 bitrate=N/A speed=3.14x    frame=14060 fps= 75 q=-0.0 size=N/A time=00:09:46.41 bitrate=N/A speed=3.14x    frame=14105 fps= 75 q=-0.0 size=N/A time=00:09:48.29 bitrate=N/A speed=3.14x    frame=14145 fps= 75 q=-0.0 size=N/A time=00:09:49.96 bitrate=N/A speed=3.14x    frame=14182 fps= 75 q=-0.0 size=N/A time=00:09:51.50 bitrate=N/A speed=3.14x    frame=14222 fps= 75 q=-0.0 size=N/A time=00:09:53.17 bitrate=N/A speed=3.14x    frame=14262 fps= 75 q=-0.0 size=N/A time=00:09:54.84 bitrate=N/A speed=3.14x    frame=14301 fps= 75 q=-0.0 size=N/A time=00:09:56.47 bitrate=N/A speed=3.14x    frame=14340 fps= 75 q=-0.0 size=N/A time=00:09:58.09 bitrate=N/A speed=3.14x    frame=14374 fps= 75 q=-0.0 size=N/A time=00:09:59.51 bitrate=N/A speed=3.14x    frame=14417 fps= 75 q=-0.0 size=N/A time=00:10:01.30 bitrate=N/A speed=3.14x    frame=14458 fps= 75 q=-0.0 size=N/A time=00:10:03.01 bitrate=N/A speed=3.14x    frame=14496 fps= 75 q=-0.0 size=N/A time=00:10:04.60 bitrate=N/A speed=3.14x    frame=14528 fps= 75 q=-0.0 size=N/A time=00:10:05.93 bitrate=N/A speed=3.14x    frame=14573 fps= 75 q=-0.0 size=N/A time=00:10:07.81 bitrate=N/A speed=3.14x    frame=14612 fps= 75 q=-0.0 size=N/A time=00:10:09.44 bitrate=N/A speed=3.14x    frame=14651 fps= 75 q=-0.0 size=N/A time=00:10:11.06 bitrate=N/A speed=3.14x    frame=14689 fps= 75 q=-0.0 size=N/A time=00:10:12.65 bitrate=N/A speed=3.14x    frame=14727 fps= 75 q=-0.0 size=N/A time=00:10:14.23 bitrate=N/A speed=3.14x    frame=14763 fps= 75 q=-0.0 size=N/A time=00:10:15.74 bitrate=N/A speed=3.14x    frame=14797 fps= 75 q=-0.0 size=N/A time=00:10:17.15 bitrate=N/A speed=3.14x    frame=14839 fps= 75 q=-0.0 size=N/A time=00:10:18.90 bitrate=N/A speed=3.14x    frame=14882 fps= 75 q=-0.0 size=N/A time=00:10:20.70 bitrate=N/A speed=3.14x    frame=14922 fps= 75 q=-0.0 size=N/A time=00:10:22.37 bitrate=N/A speed=3.14x    frame=14959 fps= 75 q=-0.0 size=N/A time=00:10:23.91 bitrate=N/A speed=3.14x    frame=14998 fps= 75 q=-0.0 size=N/A time=00:10:25.54 bitrate=N/A speed=3.14x    frame=15036 fps= 75 q=-0.0 size=N/A time=00:10:27.12 bitrate=N/A speed=3.14x    frame=15075 fps= 75 q=-0.0 size=N/A time=00:10:28.75 bitrate=N/A speed=3.14x    frame=15112 fps= 75 q=-0.0 size=N/A time=00:10:30.29 bitrate=N/A speed=3.14x    frame=15152 fps= 75 q=-0.0 size=N/A time=00:10:31.96 bitrate=N/A speed=3.14x    frame=15190 fps= 75 q=-0.0 size=N/A time=00:10:33.54 bitrate=N/A speed=3.14x    frame=15229 fps= 75 q=-0.0 size=N/A time=00:10:35.17 bitrate=N/A speed=3.14x    frame=15263 fps= 75 q=-0.0 size=N/A time=00:10:36.59 bitrate=N/A speed=3.14x    frame=15305 fps= 75 q=-0.0 size=N/A time=00:10:38.34 bitrate=N/A speed=3.14x    frame=15335 fps= 75 q=-0.0 size=N/A time=00:10:39.59 bitrate=N/A speed=3.14x    frame=15383 fps= 75 q=-0.0 size=N/A time=00:10:41.59 bitrate=N/A speed=3.14x    frame=15423 fps= 75 q=-0.0 size=N/A time=00:10:43.26 bitrate=N/A speed=3.14x    frame=15462 fps= 75 q=-0.0 size=N/A time=00:10:44.89 bitrate=N/A speed=3.14x    frame=15500 fps= 75 q=-0.0 size=N/A time=00:10:46.47 bitrate=N/A speed=3.14x    frame=15539 fps= 75 q=-0.0 size=N/A time=00:10:48.10 bitrate=N/A speed=3.14x    frame=15575 fps= 75 q=-0.0 size=N/A time=00:10:49.60 bitrate=N/A speed=3.14x    frame=15611 fps= 75 q=-0.0 size=N/A time=00:10:51.10 bitrate=N/A speed=3.14x    frame=15655 fps= 75 q=-0.0 size=N/A time=00:10:52.94 bitrate=N/A speed=3.14x    frame=15692 fps= 75 q=-0.0 size=N/A time=00:10:54.48 bitrate=N/A speed=3.14x    frame=15732 fps= 75 q=-0.0 size=N/A time=00:10:56.15 bitrate=N/A speed=3.14x    frame=15762 fps= 75 q=-0.0 size=N/A time=00:10:57.40 bitrate=N/A speed=3.14x    frame=15810 fps= 75 q=-0.0 size=N/A time=00:10:59.40 bitrate=N/A speed=3.14x    frame=15848 fps= 75 q=-0.0 size=N/A time=00:11:00.99 bitrate=N/A speed=3.14x    frame=15886 fps= 75 q=-0.0 size=N/A time=00:11:02.57 bitrate=N/A speed=3.14x    frame=15922 fps= 75 q=-0.0 size=N/A time=00:11:04.08 bitrate=N/A speed=3.14x    frame=15961 fps= 75 q=-0.0 size=N/A time=00:11:05.70 bitrate=N/A speed=3.14x    frame=16002 fps= 75 q=-0.0 size=N/A time=00:11:07.41 bitrate=N/A speed=3.14x    frame=16044 fps= 75 q=-0.0 size=N/A time=00:11:09.16 bitrate=N/A speed=3.14x    frame=16084 fps= 75 q=-0.0 size=N/A time=00:11:10.83 bitrate=N/A speed=3.14x    frame=16121 fps= 75 q=-0.0 size=N/A time=00:11:12.38 bitrate=N/A speed=3.14x    frame=16161 fps= 75 q=-0.0 size=N/A time=00:11:14.04 bitrate=N/A speed=3.14x    frame=16200 fps= 75 q=-0.0 size=N/A time=00:11:15.67 bitrate=N/A speed=3.14x    frame=16240 fps= 75 q=-0.0 size=N/A time=00:11:17.34 bitrate=N/A speed=3.14x    frame=16280 fps= 75 q=-0.0 size=N/A time=00:11:19.01 bitrate=N/A speed=3.14x    frame=16320 fps= 75 q=-0.0 size=N/A time=00:11:20.68 bitrate=N/A speed=3.14x    frame=16354 fps= 75 q=-0.0 size=N/A time=00:11:22.09 bitrate=N/A speed=3.14x    frame=16398 fps= 75 q=-0.0 size=N/A time=00:11:23.93 bitrate=N/A speed=3.14x    frame=16429 fps= 75 q=-0.0 size=N/A time=00:11:25.22 bitrate=N/A speed=3.14x    frame=16476 fps= 75 q=-0.0 size=N/A time=00:11:27.18 bitrate=N/A speed=3.14x    frame=16515 fps= 75 q=-0.0 size=N/A time=00:11:28.81 bitrate=N/A speed=3.14x    frame=16556 fps= 75 q=-0.0 size=N/A time=00:11:30.52 bitrate=N/A speed=3.14x    frame=16594 fps= 75 q=-0.0 size=N/A time=00:11:32.10 bitrate=N/A speed=3.14x    frame=16634 fps= 75 q=-0.0 size=N/A time=00:11:33.77 bitrate=N/A speed=3.14x    frame=16669 fps= 75 q=-0.0 size=N/A time=00:11:35.23 bitrate=N/A speed=3.14x    frame=16705 fps= 75 q=-0.0 size=N/A time=00:11:36.73 bitrate=N/A speed=3.14x    frame=16752 fps= 75 q=-0.0 size=N/A time=00:11:38.69 bitrate=N/A speed=3.14x    frame=16789 fps= 75 q=-0.0 size=N/A time=00:11:40.24 bitrate=N/A speed=3.14x    frame=16823 fps= 75 q=-0.0 size=N/A time=00:11:41.65 bitrate=N/A speed=3.14x    frame=16869 fps= 75 q=-0.0 size=N/A time=00:11:43.57 bitrate=N/A speed=3.14x    frame=16907 fps= 75 q=-0.0 size=N/A time=00:11:45.16 bitrate=N/A speed=3.14x    frame=16945 fps= 75 q=-0.0 size=N/A time=00:11:46.74 bitrate=N/A speed=3.14x    frame=16983 fps= 75 q=-0.0 size=N/A time=00:11:48.33 bitrate=N/A speed=3.14x    frame=17018 fps= 75 q=-0.0 size=N/A time=00:11:49.79 bitrate=N/A speed=3.14x    frame=17062 fps= 75 q=-0.0 size=N/A time=00:11:51.62 bitrate=N/A speed=3.14x    frame=17094 fps= 75 q=-0.0 size=N/A time=00:11:52.96 bitrate=N/A speed=3.14x    frame=17131 fps= 75 q=-0.0 size=N/A time=00:11:54.50 bitrate=N/A speed=3.14x    frame=17177 fps= 75 q=-0.0 size=N/A time=00:11:56.42 bitrate=N/A speed=3.14x    frame=17216 fps= 75 q=-0.0 size=N/A time=00:11:58.05 bitrate=N/A speed=3.14x    frame=17255 fps= 75 q=-0.0 size=N/A time=00:11:59.67 bitrate=N/A speed=3.14x    frame=17295 fps= 75 q=-0.0 size=N/A time=00:12:01.34 bitrate=N/A speed=3.14x    frame=17334 fps= 75 q=-0.0 size=N/A time=00:12:02.97 bitrate=N/A speed=3.14x    frame=17374 fps= 75 q=-0.0 size=N/A time=00:12:04.64 bitrate=N/A speed=3.14x    frame=17412 fps= 75 q=-0.0 size=N/A time=00:12:06.22 bitrate=N/A speed=3.14x    frame=17452 fps= 75 q=-0.0 size=N/A time=00:12:07.89 bitrate=N/A speed=3.14x    frame=17491 fps= 75 q=-0.0 size=N/A time=00:12:09.52 bitrate=N/A speed=3.14x    frame=17524 fps= 75 q=-0.0 size=N/A time=00:12:10.89 bitrate=N/A speed=3.14x    frame=17568 fps= 75 q=-0.0 size=N/A time=00:12:12.73 bitrate=N/A speed=3.14x    frame=17605 fps= 75 q=-0.0 size=N/A time=00:12:14.27 bitrate=N/A speed=3.14x    frame=17644 fps= 75 q=-0.0 size=N/A time=00:12:15.90 bitrate=N/A speed=3.14x    frame=17682 fps= 75 q=-0.0 size=N/A time=00:12:17.48 bitrate=N/A speed=3.14x    frame=17721 fps= 75 q=-0.0 size=N/A time=00:12:19.11 bitrate=N/A speed=3.14x    frame=17759 fps= 75 q=-0.0 size=N/A time=00:12:20.69 bitrate=N/A speed=3.14x    frame=17798 fps= 75 q=-0.0 size=N/A time=00:12:22.32 bitrate=N/A speed=3.14x    frame=17837 fps= 75 q=-0.0 size=N/A time=00:12:23.95 bitrate=N/A speed=3.14x    frame=17876 fps= 75 q=-0.0 size=N/A time=00:12:25.57 bitrate=N/A speed=3.14x    frame=17913 fps= 75 q=-0.0 size=N/A time=00:12:27.12 bitrate=N/A speed=3.14x    frame=17952 fps= 75 q=-0.0 size=N/A time=00:12:28.74 bitrate=N/A speed=3.14x    frame=17982 fps= 75 q=-0.0 size=N/A time=00:12:29.99 bitrate=N/A speed=3.14x    frame=18025 fps= 75 q=-0.0 size=N/A time=00:12:31.79 bitrate=N/A speed=3.14x    frame=18066 fps= 75 q=-0.0 size=N/A time=00:12:33.50 bitrate=N/A speed=3.14x    frame=18105 fps= 75 q=-0.0 size=N/A time=00:12:35.12 bitrate=N/A speed=3.14x    frame=18145 fps= 75 q=-0.0 size=N/A time=00:12:36.79 bitrate=N/A speed=3.14x    frame=18181 fps= 75 q=-0.0 size=N/A time=00:12:38.29 bitrate=N/A speed=3.14x    frame=18216 fps= 75 q=-0.0 size=N/A time=00:12:39.75 bitrate=N/A speed=3.14x    frame=18263 fps= 75 q=-0.0 size=N/A time=00:12:41.71 bitrate=N/A speed=3.14x    frame=18297 fps= 75 q=-0.0 size=N/A time=00:12:43.13 bitrate=N/A speed=3.14x    frame=18333 fps= 75 q=-0.0 size=N/A time=00:12:44.63 bitrate=N/A speed=3.14x    frame=18369 fps= 75 q=-0.0 size=N/A time=00:12:46.14 bitrate=N/A speed=3.14x    frame=18416 fps= 75 q=-0.0 size=N/A time=00:12:48.10 bitrate=N/A speed=3.14x    frame=18454 fps= 75 q=-0.0 size=N/A time=00:12:49.68 bitrate=N/A speed=3.14x    frame=18492 fps= 75 q=-0.0 size=N/A time=00:12:51.27 bitrate=N/A speed=3.14x    frame=18532 fps= 75 q=-0.0 size=N/A time=00:12:52.93 bitrate=N/A speed=3.14x    frame=18564 fps= 75 q=-0.0 size=N/A time=00:12:54.27 bitrate=N/A speed=3.14x    frame=18609 fps= 75 q=-0.0 size=N/A time=00:12:56.15 bitrate=N/A speed=3.14x    frame=18648 fps= 75 q=-0.0 size=N/A time=00:12:57.77 bitrate=N/A speed=3.14x    frame=18685 fps= 75 q=-0.0 size=N/A time=00:12:59.32 bitrate=N/A speed=3.14x    frame=18724 fps= 75 q=-0.0 size=N/A time=00:13:00.94 bitrate=N/A speed=3.14x    frame=18762 fps= 75 q=-0.0 size=N/A time=00:13:02.53 bitrate=N/A speed=3.14x    frame=18795 fps= 75 q=-0.0 size=N/A time=00:13:03.90 bitrate=N/A speed=3.14x    frame=18839 fps= 75 q=-0.0 size=N/A time=00:13:05.74 bitrate=N/A speed=3.14x    frame=18869 fps= 75 q=-0.0 size=N/A time=00:13:06.99 bitrate=N/A speed=3.14x    frame=18920 fps= 75 q=-0.0 size=N/A time=00:13:09.12 bitrate=N/A speed=3.14x    frame=18955 fps= 75 q=-0.0 size=N/A time=00:13:10.58 bitrate=N/A speed=3.14x    frame=18987 fps= 75 q=-0.0 size=N/A time=00:13:11.91 bitrate=N/A speed=3.14x    frame=19036 fps= 75 q=-0.0 size=N/A time=00:13:13.95 bitrate=N/A speed=3.14x    frame=19078 fps= 75 q=-0.0 size=N/A time=00:13:15.71 bitrate=N/A speed=3.14x    frame=19116 fps= 75 q=-0.0 size=N/A time=00:13:17.29 bitrate=N/A speed=3.14x    frame=19156 fps= 75 q=-0.0 size=N/A time=00:13:18.96 bitrate=N/A speed=3.14x    frame=19196 fps= 75 q=-0.0 size=N/A time=00:13:20.63 bitrate=N/A speed=3.14x    frame=19234 fps= 75 q=-0.0 size=N/A time=00:13:22.21 bitrate=N/A speed=3.14x    frame=19264 fps= 75 q=-0.0 size=N/A time=00:13:23.46 bitrate=N/A speed=3.14x    frame=19311 fps= 75 q=-0.0 size=N/A time=00:13:25.42 bitrate=N/A speed=3.14x    frame=19350 fps= 75 q=-0.0 size=N/A time=00:13:27.05 bitrate=N/A speed=3.14x    frame=19389 fps= 75 q=-0.0 size=N/A time=00:13:28.68 bitrate=N/A speed=3.14x    frame=19425 fps= 75 q=-0.0 size=N/A time=00:13:30.18 bitrate=N/A speed=3.14x    frame=19461 fps= 75 q=-0.0 size=N/A time=00:13:31.68 bitrate=N/A speed=3.14x    frame=19490 fps= 75 q=-0.0 size=N/A time=00:13:32.89 bitrate=N/A speed=3.14x    frame=19542 fps= 75 q=-0.0 size=N/A time=00:13:35.06 bitrate=N/A speed=3.14x    frame=19580 fps= 75 q=-0.0 size=N/A time=00:13:36.64 bitrate=N/A speed=3.14x    frame=19619 fps= 75 q=-0.0 size=N/A time=00:13:38.27 bitrate=N/A speed=3.14x    frame=19658 fps= 75 q=-0.0 size=N/A time=00:13:39.90 bitrate=N/A speed=3.14x    frame=19693 fps= 75 q=-0.0 size=N/A time=00:13:41.36 bitrate=N/A speed=3.14x    frame=19726 fps= 75 q=-0.0 size=N/A time=00:13:42.73 bitrate=N/A speed=3.14x    frame=19776 fps= 75 q=-0.0 size=N/A time=00:13:44.82 bitrate=N/A speed=3.14x    frame=19813 fps= 75 q=-0.0 size=N/A time=00:13:46.36 bitrate=N/A speed=3.14x    frame=19852 fps= 75 q=-0.0 size=N/A time=00:13:47.99 bitrate=N/A speed=3.14x    frame=19890 fps= 75 q=-0.0 size=N/A time=00:13:49.57 bitrate=N/A speed=3.14x    frame=19929 fps= 75 q=-0.0 size=N/A time=00:13:51.20 bitrate=N/A speed=3.14x    frame=19967 fps= 75 q=-0.0 size=N/A time=00:13:52.79 bitrate=N/A speed=3.14x    frame=19996 fps= 75 q=-0.0 size=N/A time=00:13:53.99 bitrate=N/A speed=3.14x    frame=20045 fps= 75 q=-0.0 size=N/A time=00:13:56.04 bitrate=N/A speed=3.14x    frame=20084 fps= 75 q=-0.0 size=N/A time=00:13:57.67 bitrate=N/A speed=3.14x    frame=20123 fps= 75 q=-0.0 size=N/A time=00:13:59.29 bitrate=N/A speed=3.14x    frame=20155 fps= 75 q=-0.0 size=N/A time=00:14:00.63 bitrate=N/A speed=3.14x    frame=20202 fps= 75 q=-0.0 size=N/A time=00:14:02.59 bitrate=N/A speed=3.14x    frame=20240 fps= 75 q=-0.0 size=N/A time=00:14:04.17 bitrate=N/A speed=3.14x    frame=20272 fps= 75 q=-0.0 size=N/A time=00:14:05.51 bitrate=N/A speed=3.14x    frame=20314 fps= 75 q=-0.0 size=N/A time=00:14:07.26 bitrate=N/A speed=3.14x    frame=20357 fps= 75 q=-0.0 size=N/A time=00:14:09.05 bitrate=N/A speed=3.14x    frame=20395 fps= 75 q=-0.0 size=N/A time=00:14:10.64 bitrate=N/A speed=3.14x    frame=20434 fps= 75 q=-0.0 size=N/A time=00:14:12.26 bitrate=N/A speed=3.14x    frame=20473 fps= 75 q=-0.0 size=N/A time=00:14:13.89 bitrate=N/A speed=3.14x    frame=20512 fps= 75 q=-0.0 size=N/A time=00:14:15.52 bitrate=N/A speed=3.14x    frame=20548 fps= 75 q=-0.0 size=N/A time=00:14:17.02 bitrate=N/A speed=3.14x    frame=20584 fps= 75 q=-0.0 size=N/A time=00:14:18.52 bitrate=N/A speed=3.14x    frame=20630 fps= 75 q=-0.0 size=N/A time=00:14:20.44 bitrate=N/A speed=3.14x    frame=20669 fps= 75 q=-0.0 size=N/A time=00:14:22.06 bitrate=N/A speed=3.14x    frame=20705 fps= 75 q=-0.0 size=N/A time=00:14:23.57 bitrate=N/A speed=3.14x    frame=20743 fps= 75 q=-0.0 size=N/A time=00:14:25.15 bitrate=N/A speed=3.14x    frame=20785 fps= 75 q=-0.0 size=N/A time=00:14:26.90 bitrate=N/A speed=3.14x    frame=20823 fps= 75 q=-0.0 size=N/A time=00:14:28.49 bitrate=N/A speed=3.14x    frame=20861 fps= 75 q=-0.0 size=N/A time=00:14:30.07 bitrate=N/A speed=3.14x    frame=20900 fps= 75 q=-0.0 size=N/A time=00:14:31.70 bitrate=N/A speed=3.14x    frame=20929 fps= 75 q=-0.0 size=N/A time=00:14:32.91 bitrate=N/A speed=3.14x    frame=20972 fps= 75 q=-0.0 size=N/A time=00:14:34.70 bitrate=N/A speed=3.14x    frame=21016 fps= 75 q=-0.0 size=N/A time=00:14:36.54 bitrate=N/A speed=3.14x    frame=21052 fps= 75 q=-0.0 size=N/A time=00:14:38.04 bitrate=N/A speed=3.14x    frame=21088 fps= 75 q=-0.0 size=N/A time=00:14:39.54 bitrate=N/A speed=3.14x    frame=21133 fps= 75 q=-0.0 size=N/A time=00:14:41.42 bitrate=N/A speed=3.14x    frame=21172 fps= 75 q=-0.0 size=N/A time=00:14:43.04 bitrate=N/A speed=3.14x    frame=21202 fps= 75 q=-0.0 size=N/A time=00:14:44.30 bitrate=N/A speed=3.14x    frame=21251 fps= 75 q=-0.0 size=N/A time=00:14:46.34 bitrate=N/A speed=3.14x    frame=21282 fps= 75 q=-0.0 size=N/A time=00:14:47.63 bitrate=N/A speed=3.14x    frame=21329 fps= 75 q=-0.0 size=N/A time=00:14:49.59 bitrate=N/A speed=3.14x    frame=21363 fps= 75 q=-0.0 size=N/A time=00:14:51.01 bitrate=N/A speed=3.14x    frame=21408 fps= 75 q=-0.0 size=N/A time=00:14:52.89 bitrate=N/A speed=3.14x    frame=21446 fps= 75 q=-0.0 size=N/A time=00:14:54.47 bitrate=N/A speed=3.14x    frame=21484 fps= 75 q=-0.0 size=N/A time=00:14:56.06 bitrate=N/A speed=3.14x    frame=21522 fps= 75 q=-0.0 size=N/A time=00:14:57.64 bitrate=N/A speed=3.14x    frame=21560 fps= 75 q=-0.0 size=N/A time=00:14:59.23 bitrate=N/A speed=3.14x    frame=21598 fps= 75 q=-0.0 size=N/A time=00:15:00.81 bitrate=N/A speed=3.14x    frame=21636 fps= 75 q=-0.0 size=N/A time=00:15:02.40 bitrate=N/A speed=3.14x    frame=21670 fps= 75 q=-0.0 size=N/A time=00:15:03.81 bitrate=N/A speed=3.14x    frame=21715 fps= 75 q=-0.0 size=N/A time=00:15:05.69 bitrate=N/A speed=3.14x    frame=21753 fps= 75 q=-0.0 size=N/A time=00:15:07.28 bitrate=N/A speed=3.14x    frame=21793 fps= 75 q=-0.0 size=N/A time=00:15:08.94 bitrate=N/A speed=3.14x    frame=21831 fps= 75 q=-0.0 size=N/A time=00:15:10.53 bitrate=N/A speed=3.14x    frame=21870 fps= 75 q=-0.0 size=N/A time=00:15:12.16 bitrate=N/A speed=3.14x    frame=21906 fps= 75 q=-0.0 size=N/A time=00:15:13.66 bitrate=N/A speed=3.14x    frame=21942 fps= 75 q=-0.0 size=N/A time=00:15:15.16 bitrate=N/A speed=3.14x    frame=21982 fps= 75 q=-0.0 size=N/A time=00:15:16.83 bitrate=N/A speed=3.14x    frame=22026 fps= 75 q=-0.0 size=N/A time=00:15:18.66 bitrate=N/A speed=3.14x    frame=22066 fps= 75 q=-0.0 size=N/A time=00:15:20.33 bitrate=N/A speed=3.14x    frame=22104 fps= 75 q=-0.0 size=N/A time=00:15:21.92 bitrate=N/A speed=3.14x    frame=22138 fps= 75 q=-0.0 size=N/A time=00:15:23.33 bitrate=N/A speed=3.14x    frame=22183 fps= 75 q=-0.0 size=N/A time=00:15:25.21 bitrate=N/A speed=3.14x    frame=22209 fps= 75 q=-0.0 size=N/A time=00:15:26.30 bitrate=N/A speed=3.14x    frame=22261 fps= 75 q=-0.0 size=N/A time=00:15:28.46 bitrate=N/A speed=3.14x    frame=22299 fps= 75 q=-0.0 size=N/A time=00:15:30.05 bitrate=N/A speed=3.14x    frame=22337 fps= 75 q=-0.0 size=N/A time=00:15:31.63 bitrate=N/A speed=3.14x    frame=22370 fps= 75 q=-0.0 size=N/A time=00:15:33.01 bitrate=N/A speed=3.14x    frame=22416 fps= 75 q=-0.0 size=N/A time=00:15:34.93 bitrate=N/A speed=3.14x    frame=22455 fps= 75 q=-0.0 size=N/A time=00:15:36.56 bitrate=N/A speed=3.14x    frame=22493 fps= 75 q=-0.0 size=N/A time=00:15:38.14 bitrate=N/A speed=3.14x    frame=22532 fps= 75 q=-0.0 size=N/A time=00:15:39.77 bitrate=N/A speed=3.14x    frame=22571 fps= 75 q=-0.0 size=N/A time=00:15:41.39 bitrate=N/A speed=3.14x    frame=22607 fps= 75 q=-0.0 size=N/A time=00:15:42.90 bitrate=N/A speed=3.14x    frame=22641 fps= 75 q=-0.0 size=N/A time=00:15:44.31 bitrate=N/A speed=3.14x    frame=22687 fps= 75 q=-0.0 size=N/A time=00:15:46.23 bitrate=N/A speed=3.14x    frame=22723 fps= 75 q=-0.0 size=N/A time=00:15:47.73 bitrate=N/A speed=3.14x    frame=22764 fps= 75 q=-0.0 size=N/A time=00:15:49.44 bitrate=N/A speed=3.14x    frame=22794 fps= 75 q=-0.0 size=N/A time=00:15:50.69 bitrate=N/A speed=3.14x    frame=22843 fps= 75 q=-0.0 size=N/A time=00:15:52.74 bitrate=N/A speed=3.14x    frame=22883 fps= 75 q=-0.0 size=N/A time=00:15:54.41 bitrate=N/A speed=3.14x    frame=22916 fps= 75 q=-0.0 size=N/A time=00:15:55.78 bitrate=N/A speed=3.14x    frame=22960 fps= 75 q=-0.0 size=N/A time=00:15:57.62 bitrate=N/A speed=3.14x    frame=22999 fps= 75 q=-0.0 size=N/A time=00:15:59.24 bitrate=N/A speed=3.14x    frame=23032 fps= 75 q=-0.0 size=N/A time=00:16:00.62 bitrate=N/A speed=3.14x    frame=23078 fps= 75 q=-0.0 size=N/A time=00:16:02.54 bitrate=N/A speed=3.14x    frame=23118 fps= 75 q=-0.0 size=N/A time=00:16:04.21 bitrate=N/A speed=3.14x    frame=23150 fps= 75 q=-0.0 size=N/A time=00:16:05.54 bitrate=N/A speed=3.14x    frame=23190 fps= 75 q=-0.0 size=N/A time=00:16:07.21 bitrate=N/A speed=3.14x    frame=23233 fps= 75 q=-0.0 size=N/A time=00:16:09.00 bitrate=N/A speed=3.14x    frame=23271 fps= 75 q=-0.0 size=N/A time=00:16:10.59 bitrate=N/A speed=3.14x    frame=23307 fps= 75 q=-0.0 size=N/A time=00:16:12.09 bitrate=N/A speed=3.14x    frame=23345 fps= 75 q=-0.0 size=N/A time=00:16:13.68 bitrate=N/A speed=3.14x    frame=23391 fps= 75 q=-0.0 size=N/A time=00:16:15.59 bitrate=N/A speed=3.14x    frame=23428 fps= 75 q=-0.0 size=N/A time=00:16:17.14 bitrate=N/A speed=3.14x    frame=23468 fps= 75 q=-0.0 size=N/A time=00:16:18.81 bitrate=N/A speed=3.14x    frame=23506 fps= 75 q=-0.0 size=N/A time=00:16:20.39 bitrate=N/A speed=3.14x    frame=23545 fps= 75 q=-0.0 size=N/A time=00:16:22.02 bitrate=N/A speed=3.14x    frame=23585 fps= 75 q=-0.0 size=N/A time=00:16:23.69 bitrate=N/A speed=3.14x    frame=23624 fps= 75 q=-0.0 size=N/A time=00:16:25.31 bitrate=N/A speed=3.14x    frame=23664 fps= 75 q=-0.0 size=N/A time=00:16:26.98 bitrate=N/A speed=3.14x    frame=23702 fps= 75 q=-0.0 size=N/A time=00:16:28.57 bitrate=N/A speed=3.14x    frame=23737 fps= 75 q=-0.0 size=N/A time=00:16:30.03 bitrate=N/A speed=3.14x    frame=23771 fps= 75 q=-0.0 size=N/A time=00:16:31.44 bitrate=N/A speed=3.14x    frame=23818 fps= 75 q=-0.0 size=N/A time=00:16:33.40 bitrate=N/A speed=3.14x    frame=23858 fps= 75 q=-0.0 size=N/A time=00:16:35.07 bitrate=N/A speed=3.14x    frame=23896 fps= 75 q=-0.0 size=N/A time=00:16:36.66 bitrate=N/A speed=3.14x    frame=23935 fps= 75 q=-0.0 size=N/A time=00:16:38.28 bitrate=N/A speed=3.14x    frame=23974 fps= 75 q=-0.0 size=N/A time=00:16:39.91 bitrate=N/A speed=3.14x    frame=24008 fps= 75 q=-0.0 size=N/A time=00:16:41.33 bitrate=N/A speed=3.14x    frame=24051 fps= 75 q=-0.0 size=N/A time=00:16:43.12 bitrate=N/A speed=3.14x    frame=24086 fps= 75 q=-0.0 size=N/A time=00:16:44.58 bitrate=N/A speed=3.14x    frame=24120 fps= 75 q=-0.0 size=N/A time=00:16:46.00 bitrate=N/A speed=3.14x    frame=24166 fps= 75 q=-0.0 size=N/A time=00:16:47.92 bitrate=N/A speed=3.14x    frame=24202 fps= 75 q=-0.0 size=N/A time=00:16:49.42 bitrate=N/A speed=3.14x    frame=24246 fps= 75 q=-0.0 size=N/A time=00:16:51.26 bitrate=N/A speed=3.14x    frame=24284 fps= 75 q=-0.0 size=N/A time=00:16:52.84 bitrate=N/A speed=3.14x    frame=24319 fps= 75 q=-0.0 size=N/A time=00:16:54.30 bitrate=N/A speed=3.14x    frame=24363 fps= 75 q=-0.0 size=N/A time=00:16:56.14 bitrate=N/A speed=3.14x    frame=24398 fps= 75 q=-0.0 size=N/A time=00:16:57.59 bitrate=N/A speed=3.14x    frame=24433 fps= 75 q=-0.0 size=N/A time=00:16:59.05 bitrate=N/A speed=3.14x    frame=24470 fps= 75 q=-0.0 size=N/A time=00:17:00.60 bitrate=N/A speed=3.14x    frame=24513 fps= 75 q=-0.0 size=N/A time=00:17:02.39 bitrate=N/A speed=3.14x    frame=24556 fps= 75 q=-0.0 size=N/A time=00:17:04.18 bitrate=N/A speed=3.14x    frame=24592 fps= 75 q=-0.0 size=N/A time=00:17:05.69 bitrate=N/A speed=3.14x    frame=24633 fps= 75 q=-0.0 size=N/A time=00:17:07.40 bitrate=N/A speed=3.14x    frame=24670 fps= 75 q=-0.0 size=N/A time=00:17:08.94 bitrate=N/A speed=3.14x    frame=24710 fps= 75 q=-0.0 size=N/A time=00:17:10.61 bitrate=N/A speed=3.14x    frame=24748 fps= 75 q=-0.0 size=N/A time=00:17:12.19 bitrate=N/A speed=3.14x    frame=24784 fps= 75 q=-0.0 size=N/A time=00:17:13.69 bitrate=N/A speed=3.14x    frame=24828 fps= 75 q=-0.0 size=N/A time=00:17:15.53 bitrate=N/A speed=3.14x    frame=24859 fps= 75 q=-0.0 size=N/A time=00:17:16.82 bitrate=N/A speed=3.14x    frame=24905 fps= 75 q=-0.0 size=N/A time=00:17:18.74 bitrate=N/A speed=3.14x    frame=24941 fps= 75 q=-0.0 size=N/A time=00:17:20.24 bitrate=N/A speed=3.14x    frame=24978 fps= 75 q=-0.0 size=N/A time=00:17:21.79 bitrate=N/A speed=3.14x    frame=25013 fps= 75 q=-0.0 size=N/A time=00:17:23.25 bitrate=N/A speed=3.14x    frame=25061 fps= 75 q=-0.0 size=N/A time=00:17:25.25 bitrate=N/A speed=3.14x    frame=25094 fps= 75 q=-0.0 size=N/A time=00:17:26.62 bitrate=N/A speed=3.14x    frame=25139 fps= 75 q=-0.0 size=N/A time=00:17:28.50 bitrate=N/A speed=3.14x    frame=25166 fps= 75 q=-0.0 size=N/A time=00:17:29.63 bitrate=N/A speed=3.14x    frame=25217 fps= 75 q=-0.0 size=N/A time=00:17:31.75 bitrate=N/A speed=3.14x    frame=25256 fps= 75 q=-0.0 size=N/A time=00:17:33.38 bitrate=N/A speed=3.14x    frame=25294 fps= 75 q=-0.0 size=N/A time=00:17:34.97 bitrate=N/A speed=3.14x    frame=25332 fps= 75 q=-0.0 size=N/A time=00:17:36.55 bitrate=N/A speed=3.14x    frame=25372 fps= 75 q=-0.0 size=N/A time=00:17:38.22 bitrate=N/A speed=3.14x    frame=25408 fps= 75 q=-0.0 size=N/A time=00:17:39.72 bitrate=N/A speed=3.14x    frame=25444 fps= 75 q=-0.0 size=N/A time=00:17:41.22 bitrate=N/A speed=3.14x    frame=25489 fps= 75 q=-0.0 size=N/A time=00:17:43.10 bitrate=N/A speed=3.14x    frame=25526 fps= 75 q=-0.0 size=N/A time=00:17:44.64 bitrate=N/A speed=3.14x    frame=25566 fps= 75 q=-0.0 size=N/A time=00:17:46.31 bitrate=N/A speed=3.14x    frame=25604 fps= 75 q=-0.0 size=N/A time=00:17:47.90 bitrate=N/A speed=3.14x    frame=25644 fps= 75 q=-0.0 size=N/A time=00:17:49.56 bitrate=N/A speed=3.14x    frame=25682 fps= 75 q=-0.0 size=N/A time=00:17:51.15 bitrate=N/A speed=3.14x    frame=25719 fps= 75 q=-0.0 size=N/A time=00:17:52.69 bitrate=N/A speed=3.14x    frame=25762 fps= 75 q=-0.0 size=N/A time=00:17:54.49 bitrate=N/A speed=3.14x    frame=25799 fps= 75 q=-0.0 size=N/A time=00:17:56.03 bitrate=N/A speed=3.14x    frame=25834 fps= 75 q=-0.0 size=N/A time=00:17:57.49 bitrate=N/A speed=3.14x    frame=25872 fps= 75 q=-0.0 size=N/A time=00:17:59.07 bitrate=N/A speed=3.14x    frame=25917 fps= 75 q=-0.0 size=N/A time=00:18:00.95 bitrate=N/A speed=3.14x    frame=25957 fps= 75 q=-0.0 size=N/A time=00:18:02.62 bitrate=N/A speed=3.14x    frame=25994 fps= 75 q=-0.0 size=N/A time=00:18:04.16 bitrate=N/A speed=3.14x    frame=26025 fps= 75 q=-0.0 size=N/A time=00:18:05.45 bitrate=N/A speed=3.14x    frame=26070 fps= 75 q=-0.0 size=N/A time=00:18:07.33 bitrate=N/A speed=3.14x    frame=26109 fps= 75 q=-0.0 size=N/A time=00:18:08.96 bitrate=N/A speed=3.14x    frame=26146 fps= 75 q=-0.0 size=N/A time=00:18:10.50 bitrate=N/A speed=3.14x    frame=26182 fps= 75 q=-0.0 size=N/A time=00:18:12.00 bitrate=N/A speed=3.14x    frame=26222 fps= 75 q=-0.0 size=N/A time=00:18:13.67 bitrate=N/A speed=3.14x    frame=26258 fps= 75 q=-0.0 size=N/A time=00:18:15.17 bitrate=N/A speed=3.14x    frame=26294 fps= 75 q=-0.0 size=N/A time=00:18:16.67 bitrate=N/A speed=3.14x    frame=26338 fps= 75 q=-0.0 size=N/A time=00:18:18.51 bitrate=N/A speed=3.14x    frame=26378 fps= 75 q=-0.0 size=N/A time=00:18:20.18 bitrate=N/A speed=3.14x    frame=26410 fps= 75 q=-0.0 size=N/A time=00:18:21.51 bitrate=N/A speed=3.14x    frame=26457 fps= 75 q=-0.0 size=N/A time=00:18:23.47 bitrate=N/A speed=3.14x    frame=26495 fps= 75 q=-0.0 size=N/A time=00:18:25.06 bitrate=N/A speed=3.14x    frame=26532 fps= 75 q=-0.0 size=N/A time=00:18:26.60 bitrate=N/A speed=3.14x    frame=26568 fps= 75 q=-0.0 size=N/A time=00:18:28.10 bitrate=N/A speed=3.14x    frame=26609 fps= 75 q=-0.0 size=N/A time=00:18:29.81 bitrate=N/A speed=3.14x    frame=26648 fps= 75 q=-0.0 size=N/A time=00:18:31.44 bitrate=N/A speed=3.14x    frame=26688 fps= 75 q=-0.0 size=N/A time=00:18:33.11 bitrate=N/A speed=3.14x    frame=26722 fps= 75 q=-0.0 size=N/A time=00:18:34.53 bitrate=N/A speed=3.14x    frame=26767 fps= 75 q=-0.0 size=N/A time=00:18:36.40 bitrate=N/A speed=3.14x    frame=26805 fps= 75 q=-0.0 size=N/A time=00:18:37.99 bitrate=N/A speed=3.14x    frame=26832 fps= 75 q=-0.0 size=N/A time=00:18:39.11 bitrate=N/A speed=3.14x    frame=26882 fps= 75 q=-0.0 size=N/A time=00:18:41.20 bitrate=N/A speed=3.14x    frame=26918 fps= 75 q=-0.0 size=N/A time=00:18:42.70 bitrate=N/A speed=3.14x    frame=26960 fps= 75 q=-0.0 size=N/A time=00:18:44.45 bitrate=N/A speed=3.14x    frame=26998 fps= 75 q=-0.0 size=N/A time=00:18:46.04 bitrate=N/A speed=3.14x    frame=27035 fps= 75 q=-0.0 size=N/A time=00:18:47.58 bitrate=N/A speed=3.14x    frame=27075 fps= 75 q=-0.0 size=N/A time=00:18:49.25 bitrate=N/A speed=3.14x    frame=27115 fps= 75 q=-0.0 size=N/A time=00:18:50.92 bitrate=N/A speed=3.14x    frame=27148 fps= 75 q=-0.0 size=N/A time=00:18:52.29 bitrate=N/A speed=3.14x    frame=27182 fps= 75 q=-0.0 size=N/A time=00:18:53.71 bitrate=N/A speed=3.14x    frame=27231 fps= 75 q=-0.0 size=N/A time=00:18:55.75 bitrate=N/A speed=3.14x    frame=27263 fps= 75 q=-0.0 size=N/A time=00:18:57.09 bitrate=N/A speed=3.14x    frame=27308 fps= 75 q=-0.0 size=N/A time=00:18:58.97 bitrate=N/A speed=3.14x    frame=27346 fps= 75 q=-0.0 size=N/A time=00:19:00.55 bitrate=N/A speed=3.14x    frame=27384 fps= 75 q=-0.0 size=N/A time=00:19:02.14 bitrate=N/A speed=3.14x    frame=27423 fps= 75 q=-0.0 size=N/A time=00:19:03.76 bitrate=N/A speed=3.14x    frame=27461 fps= 75 q=-0.0 size=N/A time=00:19:05.35 bitrate=N/A speed=3.14x    frame=27501 fps= 75 q=-0.0 size=N/A time=00:19:07.02 bitrate=N/A speed=3.14x    frame=27541 fps= 75 q=-0.0 size=N/A time=00:19:08.68 bitrate=N/A speed=3.14x    frame=27573 fps= 75 q=-0.0 size=N/A time=00:19:10.02 bitrate=N/A speed=3.14x    frame=27611 fps= 75 q=-0.0 size=N/A time=00:19:11.60 bitrate=N/A speed=3.14x    frame=27642 fps= 75 q=-0.0 size=N/A time=00:19:12.90 bitrate=N/A speed=3.14x    frame=27686 fps= 75 q=-0.0 size=N/A time=00:19:14.73 bitrate=N/A speed=3.14x    frame=27734 fps= 75 q=-0.0 size=N/A time=00:19:16.73 bitrate=N/A speed=3.14x    frame=27774 fps= 75 q=-0.0 size=N/A time=00:19:18.40 bitrate=N/A speed=3.14x    frame=27800 fps= 75 q=-0.0 size=N/A time=00:19:19.49 bitrate=N/A speed=3.14x    frame=27850 fps= 75 q=-0.0 size=N/A time=00:19:21.57 bitrate=N/A speed=3.14x    frame=27885 fps= 75 q=-0.0 size=N/A time=00:19:23.03 bitrate=N/A speed=3.14x    frame=27922 fps= 75 q=-0.0 size=N/A time=00:19:24.58 bitrate=N/A speed=3.14x    frame=27953 fps= 75 q=-0.0 size=N/A time=00:19:25.87 bitrate=N/A speed=3.14x    frame=28003 fps= 75 q=-0.0 size=N/A time=00:19:27.95 bitrate=N/A speed=3.14x    frame=28038 fps= 75 q=-0.0 size=N/A time=00:19:29.41 bitrate=N/A speed=3.14x    frame=28077 fps= 75 q=-0.0 size=N/A time=00:19:31.04 bitrate=N/A speed=3.14x    frame=28123 fps= 75 q=-0.0 size=N/A time=00:19:32.96 bitrate=N/A speed=3.14x    frame=28155 fps= 75 q=-0.0 size=N/A time=00:19:34.29 bitrate=N/A speed=3.14x    frame=28202 fps= 75 q=-0.0 size=N/A time=00:19:36.25 bitrate=N/A speed=3.14x    frame=28236 fps= 75 q=-0.0 size=N/A time=00:19:37.67 bitrate=N/A speed=3.14x    frame=28269 fps= 75 q=-0.0 size=N/A time=00:19:39.05 bitrate=N/A speed=3.14x    frame=28320 fps= 75 q=-0.0 size=N/A time=00:19:41.18 bitrate=N/A speed=3.14x    frame=28355 fps= 75 q=-0.0 size=N/A time=00:19:42.63 bitrate=N/A speed=3.14x    frame=28392 fps= 75 q=-0.0 size=N/A time=00:19:44.18 bitrate=N/A speed=3.14x    frame=28419 fps= 75 q=-0.0 size=N/A time=00:19:45.30 bitrate=N/A speed=3.14x    frame=28466 fps= 75 q=-0.0 size=N/A time=00:19:47.26 bitrate=N/A speed=3.14x    frame=28512 fps= 75 q=-0.0 size=N/A time=00:19:49.18 bitrate=N/A speed=3.14x    frame=28549 fps= 75 q=-0.0 size=N/A time=00:19:50.73 bitrate=N/A speed=3.14x    frame=28589 fps= 75 q=-0.0 size=N/A time=00:19:52.39 bitrate=N/A speed=3.14x    frame=28621 fps= 75 q=-0.0 size=N/A time=00:19:53.73 bitrate=N/A speed=3.14x    frame=28655 fps= 75 q=-0.0 size=N/A time=00:19:55.15 bitrate=N/A speed=3.14x    frame=28705 fps= 75 q=-0.0 size=N/A time=00:19:57.23 bitrate=N/A speed=3.14x    frame=28744 fps= 75 q=-0.0 size=N/A time=00:19:58.86 bitrate=N/A speed=3.14x    frame=28785 fps= 75 q=-0.0 size=N/A time=00:20:00.57 bitrate=N/A speed=3.14x    frame=28824 fps= 75 q=-0.0 size=N/A time=00:20:02.20 bitrate=N/A speed=3.14x    frame=28863 fps= 75 q=-0.0 size=N/A time=00:20:03.82 bitrate=N/A speed=3.14x    frame=28902 fps= 75 q=-0.0 size=N/A time=00:20:05.45 bitrate=N/A speed=3.14x    frame=28938 fps= 75 q=-0.0 size=N/A time=00:20:06.95 bitrate=N/A speed=3.14x    frame=28966 fps= 75 q=-0.0 size=N/A time=00:20:08.12 bitrate=N/A speed=3.14x    frame=29018 fps= 75 q=-0.0 size=N/A time=00:20:10.29 bitrate=N/A speed=3.14x    frame=29056 fps= 75 q=-0.0 size=N/A time=00:20:11.87 bitrate=N/A speed=3.14x    frame=29095 fps= 75 q=-0.0 size=N/A time=00:20:13.50 bitrate=N/A speed=3.14x    frame=29135 fps= 75 q=-0.0 size=N/A time=00:20:15.17 bitrate=N/A speed=3.14x    frame=29172 fps= 75 q=-0.0 size=N/A time=00:20:16.71 bitrate=N/A speed=3.14x    frame=29215 fps= 75 q=-0.0 size=N/A time=00:20:18.50 bitrate=N/A speed=3.14x    frame=29254 fps= 75 q=-0.0 size=N/A time=00:20:20.13 bitrate=N/A speed=3.14x    frame=29293 fps= 75 q=-0.0 size=N/A time=00:20:21.76 bitrate=N/A speed=3.14x    frame=29325 fps= 75 q=-0.0 size=N/A time=00:20:23.09 bitrate=N/A speed=3.14x    frame=29370 fps= 75 q=-0.0 size=N/A time=00:20:24.97 bitrate=N/A speed=3.14x    frame=29406 fps= 75 q=-0.0 size=N/A time=00:20:26.47 bitrate=N/A speed=3.14x    frame=29443 fps= 75 q=-0.0 size=N/A time=00:20:28.01 bitrate=N/A speed=3.14x    frame=29487 fps= 75 q=-0.0 size=N/A time=00:20:29.85 bitrate=N/A speed=3.14x    frame=29526 fps= 75 q=-0.0 size=N/A time=00:20:31.48 bitrate=N/A speed=3.14x    frame=29564 fps= 75 q=-0.0 size=N/A time=00:20:33.06 bitrate=N/A speed=3.14x    frame=29603 fps= 75 q=-0.0 size=N/A time=00:20:34.69 bitrate=N/A speed=3.14x    frame=29641 fps= 75 q=-0.0 size=N/A time=00:20:36.27 bitrate=N/A speed=3.14x    frame=29670 fps= 75 q=-0.0 size=N/A time=00:20:37.48 bitrate=N/A speed=3.14x    frame=29717 fps= 75 q=-0.0 size=N/A time=00:20:39.44 bitrate=N/A speed=3.14x    frame=29752 fps= 75 q=-0.0 size=N/A time=00:20:40.90 bitrate=N/A speed=3.14x    frame=29792 fps= 75 q=-0.0 size=N/A time=00:20:42.57 bitrate=N/A speed=3.14x    frame=29833 fps= 75 q=-0.0 size=N/A time=00:20:44.28 bitrate=N/A speed=3.14x    frame=29872 fps= 75 q=-0.0 size=N/A time=00:20:45.91 bitrate=N/A speed=3.14x    frame=29910 fps= 75 q=-0.0 size=N/A time=00:20:47.49 bitrate=N/A speed=3.14x    frame=29950 fps= 75 q=-0.0 size=N/A time=00:20:49.16 bitrate=N/A speed=3.14x    frame=29988 fps= 75 q=-0.0 size=N/A time=00:20:50.74 bitrate=N/A speed=3.14x    frame=30028 fps= 75 q=-0.0 size=N/A time=00:20:52.41 bitrate=N/A speed=3.14x    frame=30066 fps= 75 q=-0.0 size=N/A time=00:20:54.00 bitrate=N/A speed=3.14x    frame=30106 fps= 75 q=-0.0 size=N/A time=00:20:55.67 bitrate=N/A speed=3.14x    frame=30144 fps= 75 q=-0.0 size=N/A time=00:20:57.25 bitrate=N/A speed=3.14x    frame=30174 fps= 75 q=-0.0 size=N/A time=00:20:58.50 bitrate=N/A speed=3.14x    frame=30222 fps= 75 q=-0.0 size=N/A time=00:21:00.50 bitrate=N/A speed=3.14x    frame=30258 fps= 75 q=-0.0 size=N/A time=00:21:02.01 bitrate=N/A speed=3.14x    frame=30294 fps= 75 q=-0.0 size=N/A time=00:21:03.51 bitrate=N/A speed=3.14x    frame=30325 fps= 75 q=-0.0 size=N/A time=00:21:04.80 bitrate=N/A speed=3.14x    frame=30377 fps= 75 q=-0.0 size=N/A time=00:21:06.97 bitrate=N/A speed=3.14x    frame=30415 fps= 75 q=-0.0 size=N/A time=00:21:08.55 bitrate=N/A speed=3.14x    frame=30453 fps= 75 q=-0.0 size=N/A time=00:21:10.14 bitrate=N/A speed=3.14x    frame=30492 fps= 75 q=-0.0 size=N/A time=00:21:11.77 bitrate=N/A speed=3.14x    frame=30531 fps= 75 q=-0.0 size=N/A time=00:21:13.39 bitrate=N/A speed=3.14x    frame=30570 fps= 75 q=-0.0 size=N/A time=00:21:15.02 bitrate=N/A speed=3.14x    frame=30607 fps= 75 q=-0.0 size=N/A time=00:21:16.56 bitrate=N/A speed=3.14x    frame=30640 fps= 75 q=-0.0 size=N/A time=00:21:17.94 bitrate=N/A speed=3.14x    frame=30682 fps= 75 q=-0.0 size=N/A time=00:21:19.69 bitrate=N/A speed=3.14x    frame=30720 fps= 75 q=-0.0 size=N/A time=00:21:21.28 bitrate=N/A speed=3.14x    frame=30758 fps= 75 q=-0.0 size=N/A time=00:21:22.86 bitrate=N/A speed=3.14x    frame=30797 fps= 75 q=-0.0 size=N/A time=00:21:24.49 bitrate=N/A speed=3.14x    frame=30831 fps= 75 q=-0.0 size=N/A time=00:21:25.90 bitrate=N/A speed=3.14x    frame=30875 fps= 75 q=-0.0 size=N/A time=00:21:27.74 bitrate=N/A speed=3.14x    frame=30913 fps= 75 q=-0.0 size=N/A time=00:21:29.32 bitrate=N/A speed=3.14x    frame=30946 fps= 75 q=-0.0 size=N/A time=00:21:30.70 bitrate=N/A speed=3.14x    frame=30986 fps= 75 q=-0.0 size=N/A time=00:21:32.37 bitrate=N/A speed=3.14x    frame=31018 fps= 75 q=-0.0 size=N/A time=00:21:33.70 bitrate=N/A speed=3.14x    frame=31070 fps= 75 q=-0.0 size=N/A time=00:21:35.87 bitrate=N/A speed=3.14x    frame=31110 fps= 75 q=-0.0 size=N/A time=00:21:37.54 bitrate=N/A speed=3.14x    frame=31145 fps= 75 q=-0.0 size=N/A time=00:21:39.00 bitrate=N/A speed=3.14x    frame=31172 fps= 75 q=-0.0 size=N/A time=00:21:40.13 bitrate=N/A speed=3.14x    frame=31224 fps= 75 q=-0.0 size=N/A time=00:21:42.30 bitrate=N/A speed=3.14x    frame=31263 fps= 75 q=-0.0 size=N/A time=00:21:43.92 bitrate=N/A speed=3.14x    frame=31301 fps= 75 q=-0.0 size=N/A time=00:21:45.51 bitrate=N/A speed=3.14x    frame=31341 fps= 75 q=-0.0 size=N/A time=00:21:47.18 bitrate=N/A speed=3.14x    frame=31375 fps= 75 q=-0.0 size=N/A time=00:21:48.59 bitrate=N/A speed=3.14x    frame=31416 fps= 75 q=-0.0 size=N/A time=00:21:50.30 bitrate=N/A speed=3.14x    frame=31451 fps= 75 q=-0.0 size=N/A time=00:21:51.76 bitrate=N/A speed=3.14x    frame=31496 fps= 75 q=-0.0 size=N/A time=00:21:53.64 bitrate=N/A speed=3.14x    frame=31531 fps= 75 q=-0.0 size=N/A time=00:21:55.10 bitrate=N/A speed=3.14x    frame=31575 fps= 75 q=-0.0 size=N/A time=00:21:56.94 bitrate=N/A speed=3.14x    frame=31615 fps= 75 q=-0.0 size=N/A time=00:21:58.60 bitrate=N/A speed=3.14x    frame=31653 fps= 75 q=-0.0 size=N/A time=00:22:00.19 bitrate=N/A speed=3.14x    frame=31692 fps= 75 q=-0.0 size=N/A time=00:22:01.82 bitrate=N/A speed=3.14x    frame=31731 fps= 75 q=-0.0 size=N/A time=00:22:03.44 bitrate=N/A speed=3.14x    frame=31768 fps= 75 q=-0.0 size=N/A time=00:22:04.99 bitrate=N/A speed=3.14x    frame=31804 fps= 75 q=-0.0 size=N/A time=00:22:06.49 bitrate=N/A speed=3.14x    frame=31836 fps= 75 q=-0.0 size=N/A time=00:22:07.82 bitrate=N/A speed=3.14x    frame=31883 fps= 75 q=-0.0 size=N/A time=00:22:09.78 bitrate=N/A speed=3.14x    frame=31913 fps= 75 q=-0.0 size=N/A time=00:22:11.03 bitrate=N/A speed=3.14x    frame=31955 fps= 75 q=-0.0 size=N/A time=00:22:12.78 bitrate=N/A speed=3.14x    frame=31999 fps= 75 q=-0.0 size=N/A time=00:22:14.62 bitrate=N/A speed=3.14x    frame=32036 fps= 75 q=-0.0 size=N/A time=00:22:16.16 bitrate=N/A speed=3.14x    frame=32077 fps= 75 q=-0.0 size=N/A time=00:22:17.87 bitrate=N/A speed=3.14x    frame=32116 fps= 75 q=-0.0 size=N/A time=00:22:19.50 bitrate=N/A speed=3.14x    frame=32155 fps= 75 q=-0.0 size=N/A time=00:22:21.13 bitrate=N/A speed=3.14x    frame=32195 fps= 75 q=-0.0 size=N/A time=00:22:22.79 bitrate=N/A speed=3.14x    frame=32233 fps= 75 q=-0.0 size=N/A time=00:22:24.38 bitrate=N/A speed=3.14x    frame=32271 fps= 75 q=-0.0 size=N/A time=00:22:25.96 bitrate=N/A speed=3.14x    frame=32311 fps= 75 q=-0.0 size=N/A time=00:22:27.63 bitrate=N/A speed=3.14x    frame=32349 fps= 75 q=-0.0 size=N/A time=00:22:29.22 bitrate=N/A speed=3.14x    frame=32388 fps= 75 q=-0.0 size=N/A time=00:22:30.84 bitrate=N/A speed=3.14x    frame=32426 fps= 75 q=-0.0 size=N/A time=00:22:32.43 bitrate=N/A speed=3.14x    frame=32462 fps= 75 q=-0.0 size=N/A time=00:22:33.93 bitrate=N/A speed=3.14x    frame=32498 fps= 75 q=-0.0 size=N/A time=00:22:35.43 bitrate=N/A speed=3.14x    frame=32538 fps= 75 q=-0.0 size=N/A time=00:22:37.10 bitrate=N/A speed=3.14x    frame=32578 fps= 75 q=-0.0 size=N/A time=00:22:38.77 bitrate=N/A speed=3.14x    frame=32608 fps= 75 q=-0.0 size=N/A time=00:22:40.02 bitrate=N/A speed=3.14x    frame=32650 fps= 75 q=-0.0 size=N/A time=00:22:41.77 bitrate=N/A speed=3.14x    frame=32685 fps= 75 q=-0.0 size=N/A time=00:22:43.23 bitrate=N/A speed=3.14x    frame=32730 fps= 75 q=-0.0 size=N/A time=00:22:45.11 bitrate=N/A speed=3.14x    frame=32771 fps= 75 q=-0.0 size=N/A time=00:22:46.82 bitrate=N/A speed=3.14x    frame=32809 fps= 75 q=-0.0 size=N/A time=00:22:48.40 bitrate=N/A speed=3.14x    frame=32842 fps= 75 q=-0.0 size=N/A time=00:22:49.78 bitrate=N/A speed=3.14x    frame=32878 fps= 75 q=-0.0 size=N/A time=00:22:51.28 bitrate=N/A speed=3.14x    frame=32924 fps= 75 q=-0.0 size=N/A time=00:22:53.20 bitrate=N/A speed=3.14x    frame=32963 fps= 75 q=-0.0 size=N/A time=00:22:54.83 bitrate=N/A speed=3.14x    frame=33000 fps= 75 q=-0.0 size=N/A time=00:22:56.37 bitrate=N/A speed=3.14x    frame=33040 fps= 75 q=-0.0 size=N/A time=00:22:58.04 bitrate=N/A speed=3.14x    frame=33079 fps= 75 q=-0.0 size=N/A time=00:22:59.66 bitrate=N/A speed=3.14x    frame=33119 fps= 75 q=-0.0 size=N/A time=00:23:01.33 bitrate=N/A speed=3.14x    frame=33158 fps= 75 q=-0.0 size=N/A time=00:23:02.96 bitrate=N/A speed=3.14x    frame=33190 fps= 75 q=-0.0 size=N/A time=00:23:04.29 bitrate=N/A speed=3.14x    frame=33236 fps= 75 q=-0.0 size=N/A time=00:23:06.21 bitrate=N/A speed=3.14x    frame=33265 fps= 75 q=-0.0 size=N/A time=00:23:07.42 bitrate=N/A speed=3.14x    frame=33314 fps= 75 q=-0.0 size=N/A time=00:23:09.47 bitrate=N/A speed=3.14x    frame=33351 fps= 75 q=-0.0 size=N/A time=00:23:11.01 bitrate=N/A speed=3.14x    frame=33392 fps= 75 q=-0.0 size=N/A time=00:23:12.72 bitrate=N/A speed=3.14x    frame=33429 fps= 75 q=-0.0 size=N/A time=00:23:14.26 bitrate=N/A speed=3.14x    frame=33468 fps= 75 q=-0.0 size=N/A time=00:23:15.89 bitrate=N/A speed=3.14x    frame=33507 fps= 75 q=-0.0 size=N/A time=00:23:17.52 bitrate=N/A speed=3.14x    frame=33539 fps= 75 q=-0.0 size=N/A time=00:23:18.85 bitrate=N/A speed=3.14x    frame=33586 fps= 75 q=-0.0 size=N/A time=00:23:20.81 bitrate=N/A speed=3.14x    frame=33624 fps= 75 q=-0.0 size=N/A time=00:23:22.40 bitrate=N/A speed=3.14x    frame=33660 fps= 75 q=-0.0 size=N/A time=00:23:23.90 bitrate=N/A speed=3.14x    frame=33703 fps= 75 q=-0.0 size=N/A time=00:23:25.69 bitrate=N/A speed=3.14x    frame=33740 fps= 75 q=-0.0 size=N/A time=00:23:27.23 bitrate=N/A speed=3.14x    frame=33773 fps= 75 q=-0.0 size=N/A time=00:23:28.61 bitrate=N/A speed=3.14x    frame=33817 fps= 75 q=-0.0 size=N/A time=00:23:30.45 bitrate=N/A speed=3.14x    frame=33855 fps= 75 q=-0.0 size=N/A time=00:23:32.03 bitrate=N/A speed=3.14x    frame=33882 fps= 75 q=-0.0 size=N/A time=00:23:33.16 bitrate=N/A speed=3.14x    frame=33934 fps= 75 q=-0.0 size=N/A time=00:23:35.33 bitrate=N/A speed=3.14x    frame=33969 fps= 75 q=-0.0 size=N/A time=00:23:36.79 bitrate=N/A speed=3.14x    frame=34005 fps= 75 q=-0.0 size=N/A time=00:23:38.29 bitrate=N/A speed=3.14x    frame=34048 fps= 75 q=-0.0 size=N/A time=00:23:40.08 bitrate=N/A speed=3.14x    frame=34087 fps= 75 q=-0.0 size=N/A time=00:23:41.71 bitrate=N/A speed=3.14x    frame=34126 fps= 75 q=-0.0 size=N/A time=00:23:43.33 bitrate=N/A speed=3.14x    frame=34165 fps= 75 q=-0.0 size=N/A time=00:23:44.96 bitrate=N/A speed=3.14x    frame=34204 fps= 75 q=-0.0 size=N/A time=00:23:46.59 bitrate=N/A speed=3.14x    frame=34241 fps= 75 q=-0.0 size=N/A time=00:23:48.13 bitrate=N/A speed=3.14x    frame=34281 fps= 75 q=-0.0 size=N/A time=00:23:49.80 bitrate=N/A speed=3.14x    frame=34319 fps= 75 q=-0.0 size=N/A time=00:23:51.38 bitrate=N/A speed=3.14x    frame=34359 fps= 75 q=-0.0 size=N/A time=00:23:53.05 bitrate=N/A speed=3.14x    frame=34399 fps= 75 q=-0.0 size=N/A time=00:23:54.72 bitrate=N/A speed=3.14x    [Parsed_psnr_10 @ 000001c7308b66c0] PSNR y:46.739040 u:51.213084 v:50.715928 average:47.747064 min:38.362926 max:70.689697
[out#0/null @ 000001c72ffa4b80] video:14795KiB audio:269272KiB subtitle:0KiB other streams:0KiB global headers:0KiB muxing overhead: unknown
frame=34432 fps= 75 q=-0.0 Lsize=N/A time=00:23:56.10 bitrate=N/A speed=3.14x    
